G04 EAGLE Gerber X2 export*
%TF.Part,Single*%
%TF.FileFunction,Copper,L2,Bot,Mixed*%
%TF.FilePolarity,Positive*%
%TF.GenerationSoftware,Autodesk,EAGLE,9.5.2*%
%TF.CreationDate,2021-09-18T17:57:11Z*%
G75*
%MOIN*%
%FSLAX36Y36*%
%LPD*%
%INBottom Copper Layer*%
%AMOC8*
5,1,8,0,0,1.08239X$1,22.5*%
G01*
%ADD10P,0.056284X8X292.500000*%
%ADD11P,0.056284X8X112.500000*%
%ADD12P,0.056284X8X22.500000*%
%ADD13C,0.052000*%
%ADD14C,0.076000*%
%ADD15C,0.052000*%
%ADD16C,0.064000*%
%ADD17C,0.060000*%
%ADD18P,0.071438X8X202.500000*%
%ADD19P,0.071438X8X22.500000*%
%ADD20C,0.070000*%
%ADD21C,0.024000*%
%ADD22C,0.015000*%
%ADD23C,0.029780*%

G36*
X2119708Y36745D02*
X2119708Y36745D01*
X2119971Y36753D01*
X2120140Y36822D01*
X2120320Y36854D01*
X2120546Y36987D01*
X2120789Y37086D01*
X2120924Y37210D01*
X2121082Y37302D01*
X2121248Y37506D01*
X2121441Y37683D01*
X2121524Y37846D01*
X2121640Y37987D01*
X2121725Y38236D01*
X2121844Y38469D01*
X2121875Y38679D01*
X2121925Y38824D01*
X2121921Y38983D01*
X2121953Y39203D01*
X2120510Y864255D01*
X2120448Y864598D01*
X2120412Y864944D01*
X2120369Y865030D01*
X2120352Y865124D01*
X2120174Y865424D01*
X2120020Y865736D01*
X2119951Y865802D01*
X2119902Y865885D01*
X2119631Y866104D01*
X2119377Y866343D01*
X2119289Y866380D01*
X2119215Y866441D01*
X2118885Y866552D01*
X2118564Y866688D01*
X2118468Y866692D01*
X2118377Y866723D01*
X2118030Y866712D01*
X2117681Y866728D01*
X2117589Y866699D01*
X2117494Y866696D01*
X2117171Y866565D01*
X2116839Y866458D01*
X2116754Y866395D01*
X2116675Y866363D01*
X2116527Y866227D01*
X2116402Y866135D01*
X2087414Y854128D01*
X2087235Y854013D01*
X2087038Y853934D01*
X2086866Y853776D01*
X2086670Y853650D01*
X2086542Y853481D01*
X2086386Y853338D01*
X2086279Y853131D01*
X2086139Y852944D01*
X2086078Y852741D01*
X2085981Y852552D01*
X2085939Y852275D01*
X2085886Y852097D01*
X2085894Y851976D01*
X2085871Y851819D01*
X2085871Y726898D01*
X2023017Y664045D01*
X2022922Y663908D01*
X2022800Y663797D01*
X2022672Y663548D01*
X2022513Y663319D01*
X2022471Y663158D01*
X2022395Y663011D01*
X2022342Y662658D01*
X2022292Y662463D01*
X2022301Y662380D01*
X2022285Y662277D01*
X2022285Y638532D01*
X2022315Y638369D01*
X2022307Y638203D01*
X2022392Y637937D01*
X2022441Y637662D01*
X2022526Y637519D01*
X2022576Y637361D01*
X2022788Y637075D01*
X2022891Y636901D01*
X2022955Y636849D01*
X2023017Y636765D01*
X2103583Y556199D01*
X2103583Y341465D01*
X2027196Y265078D01*
X2027049Y264866D01*
X2026871Y264678D01*
X2026798Y264506D01*
X2026692Y264352D01*
X2026627Y264102D01*
X2026526Y263864D01*
X2026518Y263678D01*
X2026471Y263496D01*
X2026498Y263239D01*
X2026486Y262981D01*
X2026543Y262803D01*
X2026562Y262617D01*
X2026677Y262386D01*
X2026755Y262140D01*
X2026884Y261966D01*
X2026953Y261825D01*
X2027068Y261717D01*
X2027196Y261543D01*
X2035946Y252793D01*
X2041427Y239561D01*
X2041427Y225240D01*
X2035946Y212008D01*
X2025819Y201881D01*
X2012587Y196400D01*
X1938265Y196400D01*
X1925033Y201881D01*
X1914906Y212008D01*
X1909425Y225240D01*
X1909425Y239561D01*
X1914906Y252793D01*
X1925033Y262920D01*
X1938265Y268401D01*
X1991299Y268401D01*
X1991462Y268431D01*
X1991628Y268423D01*
X1991894Y268508D01*
X1992169Y268557D01*
X1992312Y268642D01*
X1992469Y268692D01*
X1992756Y268904D01*
X1992930Y269007D01*
X1992982Y269071D01*
X1993066Y269133D01*
X2075850Y351917D01*
X2075945Y352053D01*
X2076067Y352165D01*
X2076195Y352414D01*
X2076354Y352643D01*
X2076396Y352804D01*
X2076472Y352951D01*
X2076525Y353303D01*
X2076575Y353499D01*
X2076566Y353581D01*
X2076582Y353684D01*
X2076582Y543979D01*
X2076553Y544143D01*
X2076560Y544308D01*
X2076475Y544574D01*
X2076426Y544849D01*
X2076341Y544992D01*
X2076291Y545150D01*
X2076136Y545359D01*
X2076127Y545381D01*
X2076088Y545425D01*
X2076079Y545437D01*
X2075977Y545610D01*
X2075912Y545663D01*
X2075850Y545746D01*
X2003924Y617672D01*
X2003788Y617767D01*
X2003676Y617889D01*
X2003428Y618017D01*
X2003199Y618177D01*
X2003038Y618218D01*
X2002891Y618294D01*
X2002538Y618347D01*
X2002343Y618397D01*
X2002260Y618389D01*
X2002157Y618404D01*
X1977029Y618404D01*
X1958284Y637150D01*
X1958284Y663660D01*
X1977029Y682405D01*
X2002157Y682405D01*
X2002320Y682435D01*
X2002486Y682427D01*
X2002752Y682512D01*
X2003027Y682562D01*
X2003170Y682646D01*
X2003328Y682697D01*
X2003614Y682908D01*
X2003788Y683011D01*
X2003841Y683076D01*
X2003924Y683137D01*
X2058137Y737351D01*
X2058232Y737487D01*
X2058355Y737599D01*
X2058483Y737847D01*
X2058642Y738076D01*
X2058683Y738237D01*
X2058759Y738384D01*
X2058812Y738736D01*
X2058863Y738932D01*
X2058854Y739015D01*
X2058869Y739118D01*
X2058869Y850324D01*
X2058824Y850579D01*
X2058816Y850837D01*
X2058746Y851010D01*
X2058713Y851194D01*
X2058582Y851416D01*
X2058485Y851656D01*
X2058359Y851794D01*
X2058264Y851955D01*
X2058063Y852118D01*
X2057889Y852309D01*
X2057723Y852394D01*
X2057578Y852512D01*
X2057333Y852595D01*
X2057104Y852713D01*
X2056890Y852745D01*
X2056741Y852796D01*
X2056585Y852791D01*
X2056370Y852823D01*
X2049557Y852823D01*
X2017491Y866106D01*
X1992949Y890648D01*
X1979666Y922714D01*
X1979666Y957422D01*
X1992949Y989489D01*
X2017491Y1014031D01*
X2049557Y1027313D01*
X2056370Y1027313D01*
X2056625Y1027359D01*
X2056883Y1027366D01*
X2057056Y1027436D01*
X2057240Y1027469D01*
X2057462Y1027601D01*
X2057702Y1027697D01*
X2057840Y1027823D01*
X2058001Y1027918D01*
X2058164Y1028119D01*
X2058355Y1028293D01*
X2058440Y1028459D01*
X2058558Y1028604D01*
X2058641Y1028849D01*
X2058759Y1029079D01*
X2058791Y1029293D01*
X2058842Y1029441D01*
X2058837Y1029598D01*
X2058869Y1029812D01*
X2058869Y1249319D01*
X2058840Y1249482D01*
X2058848Y1249648D01*
X2058763Y1249914D01*
X2058713Y1250189D01*
X2058629Y1250332D01*
X2058578Y1250490D01*
X2058367Y1250776D01*
X2058264Y1250950D01*
X2058199Y1251002D01*
X2058137Y1251086D01*
X2039218Y1270005D01*
X2039006Y1270153D01*
X2038818Y1270330D01*
X2038646Y1270403D01*
X2038493Y1270510D01*
X2038243Y1270574D01*
X2038005Y1270675D01*
X2037818Y1270684D01*
X2037637Y1270730D01*
X2037380Y1270704D01*
X2037122Y1270716D01*
X2036944Y1270659D01*
X2036758Y1270639D01*
X2036526Y1270525D01*
X2036280Y1270446D01*
X2036106Y1270318D01*
X2035966Y1270248D01*
X2035858Y1270134D01*
X2035684Y1270005D01*
X2027146Y1261468D01*
X2013914Y1255987D01*
X1939593Y1255987D01*
X1926360Y1261468D01*
X1916234Y1271595D01*
X1910753Y1284827D01*
X1910753Y1299148D01*
X1910935Y1299588D01*
X1911000Y1299885D01*
X1911097Y1300174D01*
X1911093Y1300314D01*
X1911123Y1300451D01*
X1911081Y1300753D01*
X1911072Y1301057D01*
X1911019Y1301187D01*
X1911000Y1301326D01*
X1910855Y1301594D01*
X1910741Y1301876D01*
X1910646Y1301980D01*
X1910579Y1302104D01*
X1910350Y1302304D01*
X1910145Y1302529D01*
X1910020Y1302593D01*
X1909914Y1302686D01*
X1909630Y1302794D01*
X1909359Y1302934D01*
X1909203Y1302957D01*
X1909089Y1303001D01*
X1908903Y1303002D01*
X1908626Y1303044D01*
X1831696Y1303044D01*
X1831532Y1303014D01*
X1831367Y1303022D01*
X1831101Y1302937D01*
X1830826Y1302888D01*
X1830683Y1302803D01*
X1830525Y1302753D01*
X1830238Y1302541D01*
X1830065Y1302438D01*
X1830012Y1302374D01*
X1829929Y1302312D01*
X1811945Y1284328D01*
X1811797Y1284116D01*
X1811620Y1283928D01*
X1811547Y1283756D01*
X1811440Y1283602D01*
X1811375Y1283352D01*
X1811275Y1283114D01*
X1811266Y1282928D01*
X1811219Y1282747D01*
X1811246Y1282490D01*
X1811234Y1282232D01*
X1811291Y1282053D01*
X1811311Y1281868D01*
X1811425Y1281636D01*
X1811504Y1281390D01*
X1811633Y1281216D01*
X1811702Y1281075D01*
X1811816Y1280968D01*
X1811945Y1280793D01*
X1812054Y1280684D01*
X1812054Y1248375D01*
X1789208Y1225529D01*
X1756899Y1225529D01*
X1734053Y1248375D01*
X1734053Y1280684D01*
X1756899Y1303530D01*
X1789208Y1303530D01*
X1789317Y1303421D01*
X1789530Y1303273D01*
X1789717Y1303096D01*
X1789889Y1303023D01*
X1790043Y1302916D01*
X1790293Y1302852D01*
X1790531Y1302751D01*
X1790717Y1302742D01*
X1790898Y1302696D01*
X1791156Y1302722D01*
X1791414Y1302711D01*
X1791591Y1302767D01*
X1791778Y1302787D01*
X1792010Y1302901D01*
X1792255Y1302980D01*
X1792429Y1303109D01*
X1792570Y1303178D01*
X1792678Y1303292D01*
X1792852Y1303421D01*
X1819476Y1330045D01*
X1913569Y1330045D01*
X1913914Y1330107D01*
X1914262Y1330143D01*
X1914346Y1330185D01*
X1914439Y1330201D01*
X1914741Y1330379D01*
X1915055Y1330534D01*
X1915119Y1330603D01*
X1915200Y1330651D01*
X1915421Y1330922D01*
X1915661Y1331177D01*
X1915698Y1331264D01*
X1915757Y1331336D01*
X1915870Y1331668D01*
X1916006Y1331991D01*
X1916011Y1332084D01*
X1916041Y1332173D01*
X1916031Y1332523D01*
X1916047Y1332874D01*
X1916018Y1332963D01*
X1916015Y1333057D01*
X1915884Y1333382D01*
X1915777Y1333715D01*
X1915715Y1333799D01*
X1915684Y1333876D01*
X1915548Y1334025D01*
X1915336Y1334312D01*
X1885245Y1364404D01*
X1885110Y1364497D01*
X1885000Y1364618D01*
X1884750Y1364748D01*
X1884519Y1364908D01*
X1884360Y1364949D01*
X1884215Y1365024D01*
X1883858Y1365078D01*
X1883663Y1365129D01*
X1883582Y1365120D01*
X1883481Y1365136D01*
X1573484Y1365625D01*
X1573482Y1365625D01*
X1573480Y1365625D01*
X1567136Y1365625D01*
X1567020Y1365655D01*
X1566935Y1365646D01*
X1566828Y1365662D01*
X1397335Y1365662D01*
X1397172Y1365633D01*
X1397006Y1365641D01*
X1396740Y1365555D01*
X1396465Y1365506D01*
X1396322Y1365422D01*
X1396164Y1365371D01*
X1395878Y1365159D01*
X1395704Y1365057D01*
X1395652Y1364992D01*
X1395568Y1364930D01*
X1319058Y1288421D01*
X1318963Y1288285D01*
X1318841Y1288173D01*
X1318713Y1287925D01*
X1318554Y1287695D01*
X1318512Y1287535D01*
X1318436Y1287387D01*
X1318383Y1287035D01*
X1318333Y1286840D01*
X1318342Y1286757D01*
X1318326Y1286654D01*
X1318326Y815905D01*
X1299090Y796668D01*
X1298995Y796532D01*
X1298872Y796420D01*
X1298745Y796172D01*
X1298585Y795943D01*
X1298544Y795782D01*
X1298468Y795634D01*
X1298415Y795282D01*
X1298365Y795087D01*
X1298373Y795004D01*
X1298358Y794901D01*
X1298358Y769773D01*
X1279612Y751028D01*
X1253102Y751028D01*
X1234356Y769773D01*
X1234356Y796283D01*
X1253102Y815029D01*
X1278230Y815029D01*
X1278393Y815058D01*
X1278559Y815051D01*
X1278824Y815136D01*
X1279099Y815185D01*
X1279242Y815270D01*
X1279400Y815320D01*
X1279687Y815532D01*
X1279860Y815634D01*
X1279913Y815699D01*
X1279997Y815761D01*
X1290593Y826357D01*
X1290688Y826493D01*
X1290810Y826605D01*
X1290938Y826853D01*
X1291097Y827083D01*
X1291139Y827243D01*
X1291215Y827391D01*
X1291268Y827743D01*
X1291318Y827938D01*
X1291309Y828021D01*
X1291325Y828124D01*
X1291325Y1298873D01*
X1375932Y1383481D01*
X1376027Y1383617D01*
X1376150Y1383729D01*
X1376277Y1383977D01*
X1376437Y1384206D01*
X1376478Y1384367D01*
X1376554Y1384514D01*
X1376577Y1384668D01*
X1384573Y1392664D01*
X1579801Y1392664D01*
X1579960Y1392623D01*
X1580041Y1392631D01*
X1580142Y1392616D01*
X1890141Y1392126D01*
X1890143Y1392127D01*
X1890145Y1392126D01*
X1895720Y1392126D01*
X1899677Y1388157D01*
X1899679Y1388156D01*
X1899680Y1388154D01*
X1957057Y1330777D01*
X1957193Y1330683D01*
X1957305Y1330560D01*
X1957553Y1330432D01*
X1957782Y1330273D01*
X1957943Y1330231D01*
X1958090Y1330155D01*
X1958443Y1330102D01*
X1958638Y1330052D01*
X1958721Y1330061D01*
X1958824Y1330045D01*
X2017364Y1330045D01*
X2022963Y1324446D01*
X2023061Y1324378D01*
X2023138Y1324287D01*
X2023539Y1324046D01*
X2023688Y1323942D01*
X2023729Y1323931D01*
X2023774Y1323904D01*
X2027146Y1322507D01*
X2037273Y1312380D01*
X2038670Y1309008D01*
X2038735Y1308907D01*
X2038771Y1308794D01*
X2039048Y1308419D01*
X2039147Y1308264D01*
X2039181Y1308239D01*
X2039212Y1308197D01*
X2077230Y1270179D01*
X2077231Y1270179D01*
X2085871Y1261538D01*
X2085871Y1028318D01*
X2085908Y1028109D01*
X2085906Y1027897D01*
X2085986Y1027677D01*
X2086027Y1027448D01*
X2086135Y1027265D01*
X2086207Y1027066D01*
X2086358Y1026888D01*
X2086476Y1026687D01*
X2086641Y1026553D01*
X2086778Y1026391D01*
X2087018Y1026247D01*
X2087162Y1026130D01*
X2087277Y1026091D01*
X2087414Y1026009D01*
X2116788Y1013841D01*
X2117089Y1013776D01*
X2117378Y1013678D01*
X2117516Y1013682D01*
X2117652Y1013653D01*
X2117955Y1013696D01*
X2118262Y1013705D01*
X2118390Y1013757D01*
X2118527Y1013777D01*
X2118796Y1013922D01*
X2119080Y1014038D01*
X2119183Y1014132D01*
X2119304Y1014197D01*
X2119506Y1014427D01*
X2119732Y1014635D01*
X2119795Y1014758D01*
X2119886Y1014862D01*
X2119995Y1015148D01*
X2120135Y1015421D01*
X2120158Y1015576D01*
X2120201Y1015688D01*
X2120203Y1015874D01*
X2120244Y1016155D01*
X2119529Y1424730D01*
X2119484Y1424980D01*
X2119477Y1425234D01*
X2119406Y1425411D01*
X2119372Y1425599D01*
X2119242Y1425818D01*
X2119147Y1426054D01*
X2119019Y1426195D01*
X2118921Y1426360D01*
X2118723Y1426520D01*
X2118552Y1426708D01*
X2118383Y1426796D01*
X2118234Y1426916D01*
X2117994Y1426997D01*
X2117767Y1427114D01*
X2117547Y1427147D01*
X2117397Y1427198D01*
X2117243Y1427193D01*
X2117034Y1427225D01*
X48161Y1430460D01*
X47908Y1430415D01*
X47650Y1430408D01*
X47476Y1430338D01*
X47291Y1430305D01*
X47069Y1430174D01*
X46830Y1430078D01*
X46691Y1429952D01*
X46529Y1429857D01*
X46367Y1429657D01*
X46176Y1429484D01*
X46090Y1429317D01*
X45971Y1429172D01*
X45888Y1428928D01*
X45770Y1428699D01*
X45737Y1428484D01*
X45686Y1428335D01*
X45691Y1428179D01*
X45658Y1427966D01*
X44297Y797935D01*
X44351Y797633D01*
X44371Y797326D01*
X44427Y797200D01*
X44451Y797065D01*
X44607Y796800D01*
X44732Y796520D01*
X44829Y796422D01*
X44899Y796303D01*
X45137Y796109D01*
X45352Y795890D01*
X45477Y795831D01*
X45584Y795744D01*
X45874Y795645D01*
X46152Y795515D01*
X46289Y795503D01*
X46420Y795459D01*
X46727Y795467D01*
X47033Y795441D01*
X47184Y795479D01*
X47303Y795482D01*
X47476Y795552D01*
X47753Y795620D01*
X72252Y805768D01*
X106960Y805768D01*
X139026Y792486D01*
X163568Y767944D01*
X176851Y735877D01*
X176851Y701170D01*
X163568Y669103D01*
X139026Y644561D01*
X106960Y631279D01*
X72252Y631279D01*
X47410Y641569D01*
X47115Y641633D01*
X46830Y641730D01*
X46686Y641727D01*
X46547Y641757D01*
X46248Y641715D01*
X45946Y641707D01*
X45814Y641653D01*
X45672Y641633D01*
X45406Y641490D01*
X45126Y641377D01*
X45020Y641281D01*
X44894Y641213D01*
X44696Y640986D01*
X44472Y640783D01*
X44406Y640656D01*
X44312Y640548D01*
X44205Y640266D01*
X44066Y639998D01*
X44042Y639838D01*
X43997Y639722D01*
X43996Y639538D01*
X43954Y639265D01*
X43344Y357054D01*
X43406Y356706D01*
X43443Y356355D01*
X43483Y356274D01*
X43499Y356184D01*
X43677Y355880D01*
X43834Y355563D01*
X43900Y355500D01*
X43946Y355422D01*
X44219Y355199D01*
X44476Y354956D01*
X44560Y354921D01*
X44631Y354863D01*
X44966Y354749D01*
X45290Y354611D01*
X45381Y354607D01*
X45468Y354578D01*
X45821Y354587D01*
X46173Y354571D01*
X46260Y354599D01*
X46351Y354601D01*
X46678Y354733D01*
X47015Y354840D01*
X47096Y354901D01*
X47171Y354931D01*
X47320Y355066D01*
X47611Y355281D01*
X148369Y456040D01*
X148464Y456176D01*
X148586Y456288D01*
X148714Y456536D01*
X148874Y456765D01*
X148915Y456926D01*
X148991Y457073D01*
X149044Y457426D01*
X149094Y457621D01*
X149086Y457704D01*
X149101Y457807D01*
X149101Y482935D01*
X167847Y501680D01*
X194357Y501680D01*
X213103Y482935D01*
X213103Y456424D01*
X194357Y437679D01*
X169229Y437679D01*
X169066Y437649D01*
X168900Y437657D01*
X168634Y437572D01*
X168359Y437523D01*
X168216Y437438D01*
X168059Y437388D01*
X167772Y437176D01*
X167598Y437073D01*
X167546Y437009D01*
X167462Y436947D01*
X65033Y334517D01*
X64940Y334383D01*
X64819Y334274D01*
X64689Y334023D01*
X64528Y333792D01*
X64487Y333634D01*
X64412Y333489D01*
X64358Y333132D01*
X64308Y332936D01*
X64316Y332856D01*
X64301Y332756D01*
X63956Y175014D01*
X64025Y174622D01*
X64081Y174226D01*
X64102Y174187D01*
X64110Y174144D01*
X64311Y173801D01*
X64502Y173449D01*
X64535Y173420D01*
X64558Y173382D01*
X64866Y173130D01*
X65167Y172867D01*
X65208Y172851D01*
X65242Y172823D01*
X65619Y172694D01*
X65992Y172552D01*
X66037Y172552D01*
X66079Y172538D01*
X66475Y172548D01*
X66876Y172545D01*
X66918Y172560D01*
X66962Y172561D01*
X67329Y172709D01*
X67707Y172845D01*
X67741Y172874D01*
X67782Y172891D01*
X68075Y173157D01*
X68382Y173416D01*
X68407Y173458D01*
X68436Y173485D01*
X68518Y173644D01*
X68764Y174052D01*
X70143Y177382D01*
X74083Y183278D01*
X79098Y188292D01*
X84993Y192232D01*
X91546Y194946D01*
X97047Y196040D01*
X97047Y162829D01*
X97093Y162575D01*
X97101Y162317D01*
X97171Y162144D01*
X97204Y161959D01*
X97335Y161737D01*
X97432Y161497D01*
X97558Y161359D01*
X97653Y161198D01*
X97853Y161035D01*
X98027Y160845D01*
X98193Y160759D01*
X98339Y160641D01*
X98584Y160558D01*
X98813Y160440D01*
X99027Y160408D01*
X99176Y160358D01*
X99332Y160362D01*
X99547Y160330D01*
X102048Y160330D01*
X102048Y160327D01*
X99547Y160327D01*
X99292Y160282D01*
X99034Y160274D01*
X98861Y160204D01*
X98677Y160171D01*
X98454Y160040D01*
X98215Y159943D01*
X98077Y159817D01*
X97916Y159722D01*
X97753Y159521D01*
X97562Y159347D01*
X97477Y159181D01*
X97359Y159036D01*
X97276Y158791D01*
X97157Y158562D01*
X97125Y158347D01*
X97075Y158199D01*
X97080Y158043D01*
X97047Y157828D01*
X97047Y124617D01*
X91546Y125712D01*
X84993Y128426D01*
X79098Y132365D01*
X74083Y137380D01*
X70143Y143276D01*
X68700Y146760D01*
X68488Y147091D01*
X68289Y147430D01*
X68250Y147462D01*
X68223Y147503D01*
X67909Y147740D01*
X67604Y147989D01*
X67557Y148005D01*
X67517Y148035D01*
X67140Y148147D01*
X66767Y148274D01*
X66718Y148273D01*
X66670Y148287D01*
X66276Y148261D01*
X65884Y148250D01*
X65838Y148232D01*
X65788Y148229D01*
X65428Y148067D01*
X65064Y147921D01*
X65027Y147888D01*
X64982Y147867D01*
X64700Y147590D01*
X64410Y147327D01*
X64387Y147283D01*
X64352Y147248D01*
X64184Y146890D01*
X64004Y146542D01*
X63995Y146488D01*
X63976Y146447D01*
X63961Y146261D01*
X63892Y145809D01*
X63788Y98328D01*
X63818Y98161D01*
X63810Y97993D01*
X63894Y97729D01*
X63943Y97457D01*
X64028Y97313D01*
X64079Y97151D01*
X64289Y96868D01*
X64390Y96695D01*
X64456Y96641D01*
X64520Y96555D01*
X99498Y61577D01*
X99632Y61484D01*
X99743Y61362D01*
X99993Y61233D01*
X100223Y61073D01*
X100382Y61032D01*
X100528Y60956D01*
X100884Y60902D01*
X101079Y60852D01*
X101160Y60860D01*
X101261Y60845D01*
X208915Y60676D01*
X208916Y60676D01*
X646546Y59987D01*
X646548Y59987D01*
X646550Y59987D01*
X683208Y59987D01*
X683372Y60016D01*
X683537Y60008D01*
X683803Y60094D01*
X684078Y60143D01*
X684221Y60227D01*
X684379Y60278D01*
X684665Y60490D01*
X684839Y60592D01*
X684892Y60657D01*
X684975Y60719D01*
X717887Y93630D01*
X717981Y93766D01*
X718104Y93878D01*
X718232Y94126D01*
X718391Y94355D01*
X718433Y94516D01*
X718508Y94664D01*
X718561Y95016D01*
X718612Y95211D01*
X718603Y95294D01*
X718619Y95397D01*
X718619Y97619D01*
X718581Y97827D01*
X718583Y98040D01*
X718504Y98259D01*
X718462Y98489D01*
X718355Y98671D01*
X718282Y98871D01*
X718132Y99049D01*
X718013Y99250D01*
X717848Y99383D01*
X717711Y99545D01*
X717471Y99690D01*
X717327Y99807D01*
X717212Y99846D01*
X717076Y99928D01*
X706256Y104410D01*
X693878Y116787D01*
X687180Y132959D01*
X687180Y150464D01*
X693878Y166636D01*
X706256Y179013D01*
X722428Y185712D01*
X739932Y185712D01*
X756105Y179013D01*
X768482Y166636D01*
X773191Y155268D01*
X773305Y155089D01*
X773385Y154893D01*
X773542Y154720D01*
X773668Y154524D01*
X773838Y154397D01*
X773981Y154240D01*
X774188Y154133D01*
X774374Y153993D01*
X774578Y153932D01*
X774766Y153835D01*
X775044Y153794D01*
X775221Y153741D01*
X775343Y153749D01*
X775500Y153725D01*
X824992Y153725D01*
X825201Y153763D01*
X825413Y153761D01*
X825633Y153840D01*
X825862Y153882D01*
X826045Y153989D01*
X826244Y154062D01*
X826422Y154212D01*
X826623Y154331D01*
X826757Y154495D01*
X826919Y154633D01*
X827063Y154873D01*
X827180Y155017D01*
X827219Y155132D01*
X827301Y155268D01*
X831394Y165149D01*
X843771Y177526D01*
X859944Y184225D01*
X877448Y184225D01*
X893620Y177526D01*
X905998Y165149D01*
X912696Y148977D01*
X912696Y131472D01*
X905998Y115300D01*
X893620Y102923D01*
X877448Y96224D01*
X859944Y96224D01*
X843771Y102923D01*
X831394Y115300D01*
X827301Y125181D01*
X827188Y125358D01*
X827128Y125505D01*
X827127Y125506D01*
X827107Y125556D01*
X826950Y125729D01*
X826824Y125925D01*
X826654Y126052D01*
X826511Y126209D01*
X826304Y126316D01*
X826118Y126456D01*
X825914Y126517D01*
X825726Y126614D01*
X825448Y126655D01*
X825271Y126708D01*
X825149Y126700D01*
X824992Y126724D01*
X774268Y126724D01*
X774060Y126686D01*
X773847Y126688D01*
X773628Y126609D01*
X773398Y126568D01*
X773216Y126460D01*
X773016Y126388D01*
X772838Y126237D01*
X772637Y126118D01*
X772503Y125954D01*
X772342Y125817D01*
X772197Y125577D01*
X772080Y125433D01*
X772066Y125390D01*
X772059Y125381D01*
X772032Y125302D01*
X771959Y125181D01*
X768482Y116787D01*
X756105Y104410D01*
X747163Y100706D01*
X746984Y100591D01*
X746787Y100512D01*
X746615Y100354D01*
X746419Y100228D01*
X746292Y100059D01*
X746135Y99916D01*
X746028Y99709D01*
X745888Y99522D01*
X745827Y99319D01*
X745730Y99130D01*
X745688Y98853D01*
X745636Y98675D01*
X745644Y98554D01*
X745620Y98397D01*
X745620Y83178D01*
X705610Y43168D01*
X705412Y42883D01*
X705191Y42612D01*
X705160Y42521D01*
X705106Y42442D01*
X705019Y42105D01*
X704907Y41775D01*
X704909Y41680D01*
X704885Y41587D01*
X704921Y41240D01*
X704931Y40892D01*
X704967Y40803D01*
X704976Y40708D01*
X705130Y40396D01*
X705261Y40072D01*
X705325Y40001D01*
X705368Y39915D01*
X705621Y39676D01*
X705855Y39419D01*
X705940Y39375D01*
X706010Y39309D01*
X706331Y39173D01*
X706640Y39013D01*
X706746Y38997D01*
X706824Y38964D01*
X707024Y38954D01*
X707374Y38901D01*
X2119450Y36699D01*
X2119708Y36745D01*
G37*
%LPC*%
G36*
X382495Y388669D02*
X382495Y388669D01*
X370733Y393541D01*
X361732Y402543D01*
X356860Y414305D01*
X356860Y427035D01*
X361732Y438797D01*
X370733Y447799D01*
X382495Y452671D01*
X408594Y452671D01*
X408758Y452700D01*
X408923Y452693D01*
X409189Y452778D01*
X409464Y452827D01*
X409607Y452911D01*
X409765Y452962D01*
X410052Y453174D01*
X410225Y453276D01*
X410278Y453341D01*
X410361Y453403D01*
X441362Y484403D01*
X441561Y484690D01*
X441782Y484962D01*
X441813Y485051D01*
X441866Y485128D01*
X441953Y485467D01*
X442066Y485799D01*
X442063Y485893D01*
X442087Y485984D01*
X442051Y486333D01*
X442040Y486683D01*
X442005Y486770D01*
X441996Y486863D01*
X441841Y487176D01*
X441709Y487502D01*
X441646Y487571D01*
X441604Y487656D01*
X441349Y487896D01*
X441114Y488155D01*
X441030Y488198D01*
X440962Y488262D01*
X440639Y488399D01*
X440328Y488559D01*
X440225Y488575D01*
X440148Y488607D01*
X439947Y488617D01*
X439594Y488669D01*
X382495Y488669D01*
X370733Y493541D01*
X361732Y502543D01*
X360454Y505627D01*
X360340Y505805D01*
X360260Y506002D01*
X360103Y506174D01*
X359977Y506370D01*
X359808Y506498D01*
X359664Y506655D01*
X359457Y506761D01*
X359271Y506902D01*
X359067Y506962D01*
X358879Y507059D01*
X358601Y507101D01*
X358424Y507154D01*
X358303Y507146D01*
X358145Y507169D01*
X158720Y507169D01*
X158557Y507140D01*
X158391Y507148D01*
X158125Y507063D01*
X157850Y507013D01*
X157707Y506929D01*
X157549Y506878D01*
X157262Y506666D01*
X157089Y506564D01*
X157037Y506499D01*
X156953Y506437D01*
X132367Y481852D01*
X132246Y481678D01*
X132095Y481529D01*
X131995Y481318D01*
X131863Y481126D01*
X131810Y480921D01*
X131719Y480729D01*
X131700Y480496D01*
X131642Y480271D01*
X131664Y480060D01*
X131646Y479848D01*
X131714Y479575D01*
X131733Y479392D01*
X131787Y479283D01*
X131825Y479128D01*
X133103Y476045D01*
X133103Y463314D01*
X128231Y451552D01*
X119229Y442551D01*
X107467Y437679D01*
X94737Y437679D01*
X82975Y442551D01*
X73973Y451552D01*
X69101Y463314D01*
X69101Y476045D01*
X73973Y487806D01*
X82975Y496808D01*
X94737Y501680D01*
X107467Y501680D01*
X110551Y500403D01*
X110758Y500358D01*
X110953Y500275D01*
X111186Y500264D01*
X111414Y500214D01*
X111624Y500244D01*
X111836Y500234D01*
X112058Y500305D01*
X112289Y500338D01*
X112476Y500439D01*
X112678Y500504D01*
X112903Y500671D01*
X113066Y500759D01*
X113147Y500850D01*
X113274Y500945D01*
X137860Y525530D01*
X146500Y534171D01*
X358145Y534171D01*
X358354Y534208D01*
X358566Y534206D01*
X358786Y534286D01*
X359015Y534327D01*
X359198Y534435D01*
X359397Y534507D01*
X359575Y534658D01*
X359776Y534776D01*
X359910Y534941D01*
X360072Y535078D01*
X360217Y535319D01*
X360333Y535462D01*
X360372Y535577D01*
X360454Y535714D01*
X361732Y538797D01*
X370733Y547799D01*
X382495Y552671D01*
X439595Y552671D01*
X439939Y552733D01*
X440288Y552769D01*
X440372Y552810D01*
X440464Y552827D01*
X440766Y553005D01*
X441080Y553160D01*
X441145Y553228D01*
X441226Y553276D01*
X441447Y553548D01*
X441687Y553803D01*
X441723Y553889D01*
X441783Y553962D01*
X441895Y554294D01*
X442032Y554616D01*
X442036Y554710D01*
X442066Y554799D01*
X442056Y555149D01*
X442072Y555499D01*
X442043Y555589D01*
X442041Y555682D01*
X441909Y556007D01*
X441803Y556341D01*
X441741Y556425D01*
X441710Y556502D01*
X441573Y556651D01*
X441362Y556937D01*
X431361Y566938D01*
X431225Y567032D01*
X431113Y567155D01*
X430865Y567283D01*
X430636Y567442D01*
X430475Y567484D01*
X430328Y567559D01*
X429975Y567612D01*
X429780Y567663D01*
X429697Y567654D01*
X429594Y567670D01*
X366907Y567670D01*
X335860Y598717D01*
X335860Y766720D01*
X335830Y766883D01*
X335838Y767049D01*
X335753Y767315D01*
X335703Y767590D01*
X335619Y767733D01*
X335569Y767891D01*
X335357Y768177D01*
X335254Y768351D01*
X335190Y768403D01*
X335128Y768487D01*
X208453Y895162D01*
X208241Y895309D01*
X208053Y895486D01*
X207881Y895559D01*
X207728Y895666D01*
X207477Y895731D01*
X207240Y895831D01*
X207053Y895840D01*
X206872Y895887D01*
X206615Y895860D01*
X206357Y895872D01*
X206179Y895815D01*
X205993Y895796D01*
X205762Y895681D01*
X205515Y895602D01*
X205341Y895474D01*
X205201Y895404D01*
X205093Y895290D01*
X204919Y895161D01*
X204809Y895052D01*
X172500Y895052D01*
X152232Y915320D01*
X152096Y915415D01*
X151984Y915537D01*
X151736Y915665D01*
X151507Y915825D01*
X151346Y915866D01*
X151199Y915942D01*
X150846Y915995D01*
X150651Y916045D01*
X150568Y916037D01*
X150465Y916052D01*
X103319Y916052D01*
X58793Y960578D01*
X58793Y1316033D01*
X70070Y1327309D01*
X94334Y1351573D01*
X94428Y1351709D01*
X94551Y1351821D01*
X94679Y1352070D01*
X94838Y1352299D01*
X94880Y1352460D01*
X94955Y1352607D01*
X95008Y1352959D01*
X95059Y1353155D01*
X95050Y1353237D01*
X95066Y1353340D01*
X95066Y1364064D01*
X100546Y1377296D01*
X110673Y1387423D01*
X123905Y1392903D01*
X198227Y1392903D01*
X211459Y1387423D01*
X221586Y1377296D01*
X221938Y1376446D01*
X222052Y1376268D01*
X222132Y1376071D01*
X222289Y1375899D01*
X222415Y1375703D01*
X222585Y1375575D01*
X222728Y1375418D01*
X222935Y1375312D01*
X223121Y1375171D01*
X223325Y1375111D01*
X223513Y1375014D01*
X223791Y1374972D01*
X223968Y1374919D01*
X224090Y1374927D01*
X224247Y1374903D01*
X339909Y1374903D01*
X340164Y1374949D01*
X340422Y1374957D01*
X340595Y1375027D01*
X340779Y1375060D01*
X341001Y1375191D01*
X341241Y1375288D01*
X341379Y1375414D01*
X341540Y1375509D01*
X341703Y1375710D01*
X341894Y1375883D01*
X341979Y1376049D01*
X342097Y1376195D01*
X342180Y1376440D01*
X342298Y1376669D01*
X342330Y1376883D01*
X342381Y1377032D01*
X342376Y1377188D01*
X342408Y1377403D01*
X342408Y1378284D01*
X361154Y1397029D01*
X387664Y1397029D01*
X406410Y1378284D01*
X406410Y1351774D01*
X387664Y1333028D01*
X361154Y1333028D01*
X356012Y1338170D01*
X355897Y1338250D01*
X355851Y1338300D01*
X355837Y1338307D01*
X355764Y1338387D01*
X355516Y1338515D01*
X355286Y1338675D01*
X355126Y1338716D01*
X354978Y1338792D01*
X354626Y1338845D01*
X354431Y1338895D01*
X354348Y1338887D01*
X354245Y1338902D01*
X224247Y1338902D01*
X224038Y1338865D01*
X223826Y1338866D01*
X223607Y1338787D01*
X223377Y1338746D01*
X223194Y1338638D01*
X222995Y1338566D01*
X222817Y1338415D01*
X222616Y1338297D01*
X222482Y1338132D01*
X222320Y1337995D01*
X222176Y1337755D01*
X222059Y1337611D01*
X222034Y1337538D01*
X222023Y1337523D01*
X222005Y1337470D01*
X221938Y1337359D01*
X221586Y1336510D01*
X211459Y1326383D01*
X198227Y1320902D01*
X123905Y1320902D01*
X118851Y1322996D01*
X118644Y1323041D01*
X118449Y1323124D01*
X118216Y1323134D01*
X117988Y1323184D01*
X117778Y1323154D01*
X117566Y1323164D01*
X117344Y1323093D01*
X117113Y1323060D01*
X116926Y1322959D01*
X116724Y1322895D01*
X116499Y1322728D01*
X116336Y1322640D01*
X116256Y1322548D01*
X116128Y1322454D01*
X95527Y1301852D01*
X95432Y1301716D01*
X95309Y1301604D01*
X95181Y1301356D01*
X95022Y1301127D01*
X94981Y1300966D01*
X94905Y1300819D01*
X94852Y1300466D01*
X94801Y1300271D01*
X94810Y1300188D01*
X94795Y1300085D01*
X94795Y1282724D01*
X94813Y1282621D01*
X94803Y1282518D01*
X94891Y1282188D01*
X94951Y1281854D01*
X95004Y1281764D01*
X95031Y1281664D01*
X95227Y1281386D01*
X95400Y1281093D01*
X95481Y1281027D01*
X95541Y1280942D01*
X95821Y1280751D01*
X96086Y1280536D01*
X96185Y1280502D01*
X96271Y1280444D01*
X96601Y1280362D01*
X96923Y1280252D01*
X97027Y1280255D01*
X97128Y1280230D01*
X97467Y1280268D01*
X97806Y1280278D01*
X97903Y1280317D01*
X98007Y1280328D01*
X98310Y1280482D01*
X98626Y1280609D01*
X98703Y1280679D01*
X98796Y1280726D01*
X99161Y1281098D01*
X99278Y1281205D01*
X99291Y1281230D01*
X99316Y1281255D01*
X100555Y1282961D01*
X105008Y1287414D01*
X110101Y1291114D01*
X115711Y1293973D01*
X121699Y1295918D01*
X127918Y1296903D01*
X156067Y1296903D01*
X156067Y1259403D01*
X156113Y1259149D01*
X156120Y1258891D01*
X156190Y1258718D01*
X156223Y1258533D01*
X156355Y1258311D01*
X156451Y1258071D01*
X156578Y1257933D01*
X156672Y1257772D01*
X156873Y1257609D01*
X157047Y1257419D01*
X157213Y1257333D01*
X157358Y1257215D01*
X157603Y1257132D01*
X157833Y1257014D01*
X158047Y1256982D01*
X158195Y1256932D01*
X158352Y1256936D01*
X158566Y1256904D01*
X161068Y1256904D01*
X161068Y1256901D01*
X158566Y1256901D01*
X158312Y1256856D01*
X158054Y1256848D01*
X157881Y1256778D01*
X157696Y1256745D01*
X157474Y1256614D01*
X157234Y1256517D01*
X157096Y1256391D01*
X156935Y1256296D01*
X156773Y1256095D01*
X156582Y1255921D01*
X156496Y1255755D01*
X156378Y1255610D01*
X156295Y1255365D01*
X156177Y1255136D01*
X156145Y1254922D01*
X156095Y1254773D01*
X156099Y1254617D01*
X156067Y1254402D01*
X156067Y1216902D01*
X127918Y1216902D01*
X121699Y1217887D01*
X115711Y1219833D01*
X110101Y1222691D01*
X105008Y1226392D01*
X100555Y1230844D01*
X99316Y1232550D01*
X99241Y1232623D01*
X99188Y1232712D01*
X98923Y1232927D01*
X98678Y1233162D01*
X98583Y1233204D01*
X98502Y1233270D01*
X98180Y1233379D01*
X97867Y1233514D01*
X97763Y1233520D01*
X97665Y1233553D01*
X97325Y1233543D01*
X96985Y1233562D01*
X96885Y1233531D01*
X96781Y1233528D01*
X96466Y1233400D01*
X96141Y1233299D01*
X96059Y1233236D01*
X95962Y1233196D01*
X95711Y1232967D01*
X95441Y1232759D01*
X95386Y1232671D01*
X95309Y1232601D01*
X95154Y1232299D01*
X94973Y1232010D01*
X94952Y1231907D01*
X94905Y1231815D01*
X94827Y1231301D01*
X94795Y1231144D01*
X94800Y1231116D01*
X94795Y1231082D01*
X94795Y976526D01*
X94824Y976362D01*
X94816Y976197D01*
X94901Y975931D01*
X94951Y975656D01*
X95035Y975513D01*
X95086Y975355D01*
X95297Y975068D01*
X95400Y974895D01*
X95465Y974842D01*
X95527Y974758D01*
X117500Y952785D01*
X117636Y952691D01*
X117748Y952568D01*
X117996Y952440D01*
X118225Y952281D01*
X118386Y952239D01*
X118533Y952164D01*
X118886Y952111D01*
X119081Y952060D01*
X119164Y952069D01*
X119267Y952053D01*
X150465Y952053D01*
X150629Y952083D01*
X150794Y952075D01*
X151060Y952160D01*
X151335Y952210D01*
X151478Y952294D01*
X151636Y952345D01*
X151922Y952556D01*
X152096Y952659D01*
X152149Y952724D01*
X152232Y952785D01*
X172500Y973053D01*
X204810Y973053D01*
X227656Y950207D01*
X227656Y917898D01*
X227546Y917789D01*
X227399Y917577D01*
X227221Y917389D01*
X227148Y917217D01*
X227042Y917063D01*
X226977Y916813D01*
X226876Y916575D01*
X226868Y916389D01*
X226821Y916208D01*
X226848Y915950D01*
X226836Y915692D01*
X226893Y915515D01*
X226912Y915329D01*
X227027Y915096D01*
X227105Y914851D01*
X227234Y914677D01*
X227303Y914536D01*
X227417Y914429D01*
X227546Y914254D01*
X354221Y787580D01*
X362861Y778939D01*
X362861Y751271D01*
X362880Y751166D01*
X362870Y751060D01*
X362958Y750734D01*
X363017Y750401D01*
X363072Y750310D01*
X363099Y750206D01*
X363295Y749931D01*
X363467Y749640D01*
X363549Y749573D01*
X363611Y749486D01*
X363891Y749296D01*
X364152Y749083D01*
X364253Y749049D01*
X364342Y748989D01*
X364670Y748908D01*
X364989Y748800D01*
X365096Y748803D01*
X365200Y748777D01*
X365536Y748815D01*
X365873Y748825D01*
X365972Y748865D01*
X366078Y748877D01*
X366540Y749095D01*
X366692Y749156D01*
X366715Y749177D01*
X366749Y749193D01*
X371807Y752573D01*
X378359Y755287D01*
X385315Y756671D01*
X409861Y756671D01*
X409861Y723171D01*
X409907Y722916D01*
X409914Y722658D01*
X409984Y722485D01*
X410017Y722301D01*
X410149Y722078D01*
X410245Y721839D01*
X410372Y721701D01*
X410467Y721540D01*
X410667Y721377D01*
X410841Y721186D01*
X411007Y721101D01*
X411152Y720983D01*
X411398Y720900D01*
X411627Y720781D01*
X411841Y720749D01*
X411989Y720699D01*
X412146Y720704D01*
X412360Y720671D01*
X414862Y720671D01*
X414862Y720669D01*
X412360Y720669D01*
X412106Y720623D01*
X411848Y720616D01*
X411675Y720546D01*
X411491Y720513D01*
X411268Y720381D01*
X411029Y720284D01*
X410890Y720158D01*
X410729Y720063D01*
X410567Y719863D01*
X410376Y719689D01*
X410290Y719523D01*
X410172Y719377D01*
X410089Y719132D01*
X409971Y718903D01*
X409939Y718689D01*
X409889Y718540D01*
X409893Y718384D01*
X409861Y718170D01*
X409861Y684669D01*
X385315Y684669D01*
X378359Y686053D01*
X371807Y688767D01*
X366749Y692147D01*
X366651Y692189D01*
X366568Y692257D01*
X366248Y692365D01*
X365939Y692500D01*
X365832Y692506D01*
X365731Y692540D01*
X365394Y692531D01*
X365057Y692550D01*
X364955Y692518D01*
X364848Y692515D01*
X364535Y692389D01*
X364212Y692289D01*
X364128Y692224D01*
X364029Y692184D01*
X363779Y691956D01*
X363511Y691750D01*
X363455Y691660D01*
X363376Y691588D01*
X363222Y691289D01*
X363042Y691002D01*
X363020Y690897D01*
X362971Y690802D01*
X362895Y690297D01*
X362862Y690137D01*
X362867Y690106D01*
X362861Y690069D01*
X362861Y645960D01*
X362923Y645616D01*
X362959Y645267D01*
X363001Y645183D01*
X363017Y645090D01*
X363195Y644789D01*
X363350Y644475D01*
X363419Y644410D01*
X363467Y644329D01*
X363738Y644109D01*
X363993Y643868D01*
X364080Y643831D01*
X364152Y643772D01*
X364484Y643660D01*
X364807Y643523D01*
X364900Y643519D01*
X364989Y643489D01*
X365339Y643499D01*
X365689Y643483D01*
X365779Y643511D01*
X365873Y643514D01*
X366198Y643645D01*
X366531Y643752D01*
X366615Y643814D01*
X366692Y643845D01*
X366841Y643981D01*
X367128Y644193D01*
X370733Y647799D01*
X382495Y652671D01*
X447226Y652671D01*
X458987Y647799D01*
X467989Y638797D01*
X469266Y635714D01*
X469381Y635535D01*
X469460Y635338D01*
X469618Y635166D01*
X469743Y634970D01*
X469913Y634842D01*
X470056Y634686D01*
X470263Y634579D01*
X470450Y634439D01*
X470653Y634378D01*
X470842Y634281D01*
X471119Y634239D01*
X471297Y634186D01*
X471418Y634194D01*
X471575Y634171D01*
X478412Y634171D01*
X487052Y625531D01*
X487052Y625530D01*
X577680Y534903D01*
X577816Y534808D01*
X577928Y534686D01*
X578176Y534558D01*
X578405Y534398D01*
X578566Y534357D01*
X578713Y534281D01*
X579066Y534228D01*
X579261Y534178D01*
X579344Y534186D01*
X579447Y534171D01*
X658145Y534171D01*
X658354Y534208D01*
X658566Y534206D01*
X658786Y534286D01*
X659015Y534327D01*
X659198Y534435D01*
X659397Y534507D01*
X659575Y534658D01*
X659776Y534776D01*
X659910Y534941D01*
X660072Y535078D01*
X660217Y535319D01*
X660333Y535462D01*
X660372Y535577D01*
X660454Y535714D01*
X661732Y538797D01*
X670733Y547799D01*
X682495Y552671D01*
X747226Y552671D01*
X758987Y547799D01*
X767989Y538797D01*
X769266Y535714D01*
X769381Y535535D01*
X769460Y535338D01*
X769618Y535166D01*
X769743Y534970D01*
X769913Y534842D01*
X770056Y534686D01*
X770263Y534579D01*
X770450Y534439D01*
X770653Y534378D01*
X770842Y534281D01*
X771119Y534239D01*
X771297Y534186D01*
X771418Y534194D01*
X771575Y534171D01*
X787373Y534171D01*
X787536Y534200D01*
X787702Y534193D01*
X787968Y534278D01*
X788243Y534327D01*
X788386Y534411D01*
X788544Y534462D01*
X788830Y534674D01*
X789004Y534776D01*
X789056Y534841D01*
X789140Y534903D01*
X830066Y575829D01*
X830161Y575965D01*
X830283Y576077D01*
X830411Y576325D01*
X830571Y576555D01*
X830612Y576715D01*
X830688Y576863D01*
X830741Y577215D01*
X830791Y577410D01*
X830783Y577493D01*
X830798Y577596D01*
X830798Y783808D01*
X894858Y847867D01*
X898902Y847867D01*
X899246Y847929D01*
X899595Y847966D01*
X899679Y848007D01*
X899772Y848024D01*
X900073Y848202D01*
X900387Y848357D01*
X900452Y848425D01*
X900533Y848473D01*
X900753Y848745D01*
X900994Y848999D01*
X901030Y849086D01*
X901090Y849159D01*
X901202Y849491D01*
X901339Y849813D01*
X901343Y849907D01*
X901373Y849996D01*
X901363Y850346D01*
X901379Y850696D01*
X901351Y850785D01*
X901348Y850879D01*
X901217Y851204D01*
X901110Y851538D01*
X901048Y851621D01*
X901017Y851699D01*
X900881Y851848D01*
X900669Y852134D01*
X832983Y919820D01*
X832847Y919915D01*
X832735Y920037D01*
X832486Y920165D01*
X832257Y920325D01*
X832096Y920366D01*
X831949Y920442D01*
X831597Y920495D01*
X831401Y920545D01*
X831319Y920537D01*
X831216Y920552D01*
X787647Y920552D01*
X787393Y920506D01*
X787135Y920499D01*
X786961Y920429D01*
X786777Y920396D01*
X786555Y920265D01*
X786315Y920168D01*
X786177Y920042D01*
X786016Y919947D01*
X785853Y919746D01*
X785663Y919572D01*
X785577Y919406D01*
X785459Y919261D01*
X785376Y919016D01*
X785258Y918786D01*
X785226Y918572D01*
X785176Y918424D01*
X785180Y918267D01*
X785148Y918053D01*
X785148Y917898D01*
X762302Y895052D01*
X729993Y895052D01*
X707147Y917898D01*
X707147Y950207D01*
X729993Y973053D01*
X762302Y973053D01*
X785148Y950207D01*
X785148Y950053D01*
X785194Y949798D01*
X785201Y949540D01*
X785271Y949367D01*
X785304Y949183D01*
X785435Y948960D01*
X785532Y948721D01*
X785658Y948583D01*
X785753Y948422D01*
X785954Y948259D01*
X786128Y948068D01*
X786294Y947983D01*
X786439Y947865D01*
X786684Y947782D01*
X786914Y947664D01*
X787128Y947631D01*
X787276Y947581D01*
X787433Y947586D01*
X787647Y947553D01*
X843435Y947553D01*
X923889Y867100D01*
X924004Y867019D01*
X924050Y866969D01*
X924065Y866962D01*
X924137Y866882D01*
X924385Y866754D01*
X924615Y866595D01*
X924775Y866554D01*
X924923Y866478D01*
X925275Y866425D01*
X925470Y866374D01*
X925553Y866383D01*
X925656Y866367D01*
X950784Y866367D01*
X969530Y847622D01*
X969530Y821112D01*
X950784Y802366D01*
X924274Y802366D01*
X907675Y818965D01*
X907463Y819112D01*
X907275Y819290D01*
X907103Y819363D01*
X906950Y819469D01*
X906700Y819534D01*
X906462Y819635D01*
X906275Y819643D01*
X906094Y819690D01*
X905837Y819663D01*
X905579Y819675D01*
X905401Y819618D01*
X905215Y819599D01*
X904983Y819484D01*
X904737Y819406D01*
X904563Y819277D01*
X904423Y819208D01*
X904315Y819094D01*
X904141Y818965D01*
X858532Y773356D01*
X858437Y773219D01*
X858314Y773108D01*
X858187Y772859D01*
X858027Y772630D01*
X857986Y772469D01*
X857910Y772322D01*
X857857Y771969D01*
X857806Y771774D01*
X857815Y771691D01*
X857800Y771588D01*
X857800Y565377D01*
X799592Y507169D01*
X771575Y507169D01*
X771367Y507132D01*
X771154Y507134D01*
X770935Y507054D01*
X770705Y507013D01*
X770523Y506905D01*
X770323Y506833D01*
X770145Y506682D01*
X769944Y506564D01*
X769811Y506399D01*
X769649Y506262D01*
X769504Y506022D01*
X769387Y505878D01*
X769348Y505763D01*
X769266Y505627D01*
X767989Y502543D01*
X758987Y493541D01*
X747226Y488669D01*
X682495Y488669D01*
X670733Y493541D01*
X661732Y502543D01*
X660454Y505627D01*
X660340Y505805D01*
X660260Y506002D01*
X660103Y506174D01*
X659977Y506370D01*
X659808Y506498D01*
X659664Y506655D01*
X659457Y506761D01*
X659271Y506902D01*
X659067Y506962D01*
X658879Y507059D01*
X658601Y507101D01*
X658424Y507154D01*
X658303Y507146D01*
X658145Y507169D01*
X567227Y507169D01*
X471688Y602708D01*
X471476Y602856D01*
X471289Y603033D01*
X471117Y603106D01*
X470963Y603213D01*
X470713Y603277D01*
X470475Y603378D01*
X470288Y603387D01*
X470107Y603433D01*
X469850Y603407D01*
X469592Y603418D01*
X469414Y603361D01*
X469228Y603342D01*
X468997Y603228D01*
X468750Y603149D01*
X468576Y603020D01*
X468436Y602951D01*
X468328Y602837D01*
X468154Y602708D01*
X458987Y593541D01*
X451098Y590274D01*
X450842Y590109D01*
X450569Y589975D01*
X450472Y589872D01*
X450354Y589796D01*
X450172Y589554D01*
X449963Y589332D01*
X449908Y589203D01*
X449823Y589090D01*
X449736Y588799D01*
X449617Y588518D01*
X449611Y588378D01*
X449571Y588243D01*
X449591Y587939D01*
X449577Y587635D01*
X449620Y587502D01*
X449629Y587361D01*
X449754Y587083D01*
X449847Y586794D01*
X449941Y586666D01*
X449991Y586555D01*
X450121Y586423D01*
X450287Y586197D01*
X493861Y542624D01*
X493861Y498717D01*
X450287Y455143D01*
X450113Y454893D01*
X449913Y454664D01*
X449863Y454533D01*
X449783Y454417D01*
X449707Y454123D01*
X449598Y453838D01*
X449597Y453698D01*
X449562Y453562D01*
X449593Y453259D01*
X449591Y452955D01*
X449639Y452822D01*
X449653Y452683D01*
X449788Y452410D01*
X449891Y452124D01*
X449982Y452016D01*
X450044Y451890D01*
X450266Y451681D01*
X450462Y451449D01*
X450599Y451367D01*
X450687Y451284D01*
X450857Y451211D01*
X451098Y451067D01*
X458987Y447799D01*
X467989Y438797D01*
X469266Y435714D01*
X469381Y435535D01*
X469460Y435338D01*
X469618Y435166D01*
X469743Y434970D01*
X469913Y434842D01*
X470056Y434686D01*
X470263Y434579D01*
X470450Y434439D01*
X470653Y434378D01*
X470842Y434281D01*
X471119Y434239D01*
X471297Y434186D01*
X471418Y434194D01*
X471575Y434171D01*
X554673Y434171D01*
X554837Y434200D01*
X555003Y434193D01*
X555268Y434278D01*
X555543Y434327D01*
X555686Y434411D01*
X555844Y434462D01*
X556131Y434674D01*
X556304Y434776D01*
X556357Y434841D01*
X556441Y434903D01*
X577653Y456115D01*
X577747Y456251D01*
X577870Y456363D01*
X577998Y456611D01*
X578157Y456840D01*
X578199Y457001D01*
X578274Y457148D01*
X578327Y457501D01*
X578378Y457696D01*
X578369Y457779D01*
X578385Y457882D01*
X578385Y467297D01*
X590622Y479535D01*
X607928Y479535D01*
X620165Y467297D01*
X620165Y449991D01*
X607928Y437754D01*
X598513Y437754D01*
X598349Y437724D01*
X598184Y437732D01*
X597918Y437647D01*
X597643Y437598D01*
X597500Y437513D01*
X597342Y437463D01*
X597055Y437251D01*
X596882Y437148D01*
X596829Y437084D01*
X596745Y437022D01*
X566893Y407169D01*
X471575Y407169D01*
X471367Y407132D01*
X471154Y407134D01*
X470935Y407054D01*
X470705Y407013D01*
X470523Y406905D01*
X470323Y406833D01*
X470145Y406682D01*
X469944Y406564D01*
X469811Y406399D01*
X469649Y406262D01*
X469504Y406022D01*
X469387Y405878D01*
X469348Y405763D01*
X469266Y405627D01*
X467989Y402543D01*
X458987Y393541D01*
X447226Y388669D01*
X382495Y388669D01*
G37*
%LPD*%
%LPC*%
G36*
X407468Y97711D02*
X407468Y97711D01*
X391295Y104410D01*
X378918Y116787D01*
X372219Y132959D01*
X372219Y144329D01*
X372173Y144583D01*
X372166Y144841D01*
X372096Y145014D01*
X372063Y145199D01*
X371931Y145421D01*
X371835Y145661D01*
X371709Y145799D01*
X371614Y145960D01*
X371413Y146123D01*
X371239Y146313D01*
X371073Y146399D01*
X370928Y146517D01*
X370683Y146600D01*
X370453Y146718D01*
X370239Y146750D01*
X370091Y146800D01*
X369934Y146796D01*
X369720Y146828D01*
X214837Y146828D01*
X214673Y146799D01*
X214508Y146806D01*
X214242Y146721D01*
X213967Y146672D01*
X213824Y146587D01*
X213666Y146537D01*
X213379Y146325D01*
X213206Y146223D01*
X213153Y146158D01*
X213070Y146096D01*
X195302Y128328D01*
X168791Y128328D01*
X150046Y147074D01*
X150046Y173584D01*
X168791Y192329D01*
X195302Y192329D01*
X213070Y174561D01*
X213206Y174467D01*
X213318Y174344D01*
X213566Y174216D01*
X213795Y174057D01*
X213956Y174015D01*
X214103Y173939D01*
X214455Y173887D01*
X214651Y173836D01*
X214734Y173845D01*
X214837Y173829D01*
X385076Y173829D01*
X385239Y173859D01*
X385405Y173851D01*
X385671Y173936D01*
X385946Y173986D01*
X386089Y174070D01*
X386247Y174121D01*
X386533Y174332D01*
X386707Y174435D01*
X386759Y174500D01*
X386843Y174561D01*
X391295Y179013D01*
X407468Y185712D01*
X424972Y185712D01*
X434853Y181619D01*
X435060Y181574D01*
X435256Y181491D01*
X435488Y181481D01*
X435716Y181431D01*
X435927Y181461D01*
X436138Y181451D01*
X436360Y181522D01*
X436591Y181555D01*
X436778Y181656D01*
X436980Y181720D01*
X437205Y181887D01*
X437368Y181975D01*
X437449Y182067D01*
X437577Y182161D01*
X544339Y288924D01*
X552980Y297564D01*
X1445341Y297564D01*
X1445504Y297594D01*
X1445670Y297586D01*
X1445935Y297671D01*
X1446210Y297720D01*
X1446353Y297805D01*
X1446511Y297855D01*
X1446798Y298067D01*
X1446971Y298170D01*
X1447024Y298234D01*
X1447108Y298296D01*
X1635988Y487176D01*
X1636083Y487313D01*
X1636205Y487424D01*
X1636333Y487673D01*
X1636492Y487902D01*
X1636534Y488063D01*
X1636610Y488210D01*
X1636663Y488563D01*
X1636713Y488758D01*
X1636704Y488841D01*
X1636720Y488944D01*
X1636720Y793190D01*
X1725083Y881553D01*
X1725204Y881727D01*
X1725355Y881876D01*
X1725455Y882087D01*
X1725587Y882279D01*
X1725640Y882484D01*
X1725731Y882676D01*
X1725750Y882909D01*
X1725808Y883134D01*
X1725786Y883345D01*
X1725804Y883557D01*
X1725736Y883829D01*
X1725717Y884013D01*
X1725663Y884122D01*
X1725625Y884277D01*
X1722940Y890759D01*
X1722940Y905876D01*
X1728725Y919843D01*
X1739415Y930533D01*
X1753382Y936318D01*
X1768499Y936318D01*
X1782466Y930533D01*
X1793156Y919843D01*
X1798941Y905876D01*
X1798941Y890759D01*
X1793156Y876792D01*
X1782466Y866102D01*
X1768499Y860317D01*
X1753382Y860317D01*
X1746899Y863002D01*
X1746692Y863047D01*
X1746497Y863130D01*
X1746264Y863141D01*
X1746036Y863190D01*
X1745826Y863161D01*
X1745614Y863170D01*
X1745392Y863099D01*
X1745161Y863067D01*
X1744974Y862966D01*
X1744772Y862901D01*
X1744547Y862734D01*
X1744384Y862646D01*
X1744304Y862555D01*
X1744176Y862460D01*
X1664453Y782738D01*
X1664359Y782601D01*
X1664236Y782490D01*
X1664108Y782241D01*
X1663949Y782012D01*
X1663907Y781851D01*
X1663831Y781704D01*
X1663779Y781352D01*
X1663728Y781156D01*
X1663737Y781074D01*
X1663721Y780970D01*
X1663721Y476724D01*
X1457560Y270563D01*
X565199Y270563D01*
X565036Y270533D01*
X564870Y270541D01*
X564604Y270456D01*
X564329Y270407D01*
X564186Y270322D01*
X564028Y270272D01*
X563742Y270060D01*
X563568Y269957D01*
X563516Y269893D01*
X563432Y269831D01*
X456669Y163068D01*
X456548Y162894D01*
X456397Y162745D01*
X456298Y162534D01*
X456165Y162343D01*
X456112Y162137D01*
X456022Y161945D01*
X456002Y161713D01*
X455944Y161487D01*
X455966Y161276D01*
X455948Y161064D01*
X456016Y160792D01*
X456035Y160608D01*
X456089Y160499D01*
X456127Y160345D01*
X460220Y150464D01*
X460220Y132959D01*
X453522Y116787D01*
X441144Y104410D01*
X424972Y97711D01*
X407468Y97711D01*
G37*
%LPD*%
%LPC*%
G36*
X1453382Y560317D02*
X1453382Y560317D01*
X1439415Y566102D01*
X1428725Y576792D01*
X1422940Y590759D01*
X1422940Y605876D01*
X1428725Y619843D01*
X1439415Y630533D01*
X1453382Y636318D01*
X1468499Y636318D01*
X1479723Y631669D01*
X1479804Y631651D01*
X1479838Y631634D01*
X1479945Y631618D01*
X1480126Y631541D01*
X1480359Y631530D01*
X1480587Y631481D01*
X1480797Y631510D01*
X1481009Y631501D01*
X1481231Y631572D01*
X1481462Y631604D01*
X1481648Y631705D01*
X1481851Y631770D01*
X1482076Y631937D01*
X1482239Y632025D01*
X1482303Y632098D01*
X1482355Y632129D01*
X1482384Y632164D01*
X1482447Y632211D01*
X1514952Y664716D01*
X1515047Y664852D01*
X1515169Y664964D01*
X1515297Y665212D01*
X1515373Y665305D01*
X1515383Y665336D01*
X1515457Y665442D01*
X1515498Y665602D01*
X1515574Y665750D01*
X1515614Y666018D01*
X1515656Y666142D01*
X1515654Y666209D01*
X1515677Y666297D01*
X1515669Y666380D01*
X1515684Y666483D01*
X1515684Y1226253D01*
X1524325Y1234894D01*
X1534162Y1244731D01*
X1534310Y1244943D01*
X1534487Y1245131D01*
X1534560Y1245303D01*
X1534667Y1245457D01*
X1534731Y1245707D01*
X1534832Y1245945D01*
X1534841Y1246131D01*
X1534887Y1246312D01*
X1534861Y1246570D01*
X1534873Y1246828D01*
X1534816Y1247006D01*
X1534796Y1247191D01*
X1534682Y1247423D01*
X1534603Y1247669D01*
X1534474Y1247844D01*
X1534405Y1247984D01*
X1534291Y1248091D01*
X1534162Y1248266D01*
X1534053Y1248375D01*
X1534053Y1280684D01*
X1556899Y1303530D01*
X1589208Y1303530D01*
X1612054Y1280684D01*
X1612054Y1248375D01*
X1589208Y1225529D01*
X1556899Y1225529D01*
X1556790Y1225638D01*
X1556658Y1225730D01*
X1556564Y1225833D01*
X1556483Y1225875D01*
X1556390Y1225963D01*
X1556218Y1226036D01*
X1556064Y1226143D01*
X1555860Y1226195D01*
X1555778Y1226238D01*
X1555723Y1226246D01*
X1555576Y1226308D01*
X1555390Y1226317D01*
X1555208Y1226364D01*
X1555050Y1226347D01*
X1555045Y1226348D01*
X1555000Y1226348D01*
X1554941Y1226337D01*
X1554693Y1226349D01*
X1554516Y1226292D01*
X1554329Y1226273D01*
X1554186Y1226202D01*
X1554130Y1226192D01*
X1554044Y1226141D01*
X1553852Y1226079D01*
X1553678Y1225951D01*
X1553537Y1225881D01*
X1553453Y1225792D01*
X1553369Y1225742D01*
X1553328Y1225693D01*
X1553255Y1225638D01*
X1543417Y1215801D01*
X1543323Y1215664D01*
X1543200Y1215553D01*
X1543072Y1215304D01*
X1542913Y1215075D01*
X1542871Y1214914D01*
X1542796Y1214767D01*
X1542743Y1214415D01*
X1542692Y1214219D01*
X1542701Y1214137D01*
X1542685Y1214033D01*
X1542685Y1114963D01*
X1542747Y1114618D01*
X1542783Y1114270D01*
X1542825Y1114185D01*
X1542842Y1114093D01*
X1543020Y1113791D01*
X1543175Y1113477D01*
X1543243Y1113413D01*
X1543291Y1113332D01*
X1543563Y1113110D01*
X1543817Y1112871D01*
X1543904Y1112834D01*
X1543977Y1112775D01*
X1544309Y1112662D01*
X1544631Y1112525D01*
X1544725Y1112521D01*
X1544814Y1112491D01*
X1545164Y1112501D01*
X1545514Y1112485D01*
X1545603Y1112514D01*
X1545697Y1112516D01*
X1546022Y1112648D01*
X1546355Y1112755D01*
X1546439Y1112816D01*
X1546516Y1112848D01*
X1546666Y1112984D01*
X1546952Y1113195D01*
X1564904Y1131148D01*
X1597214Y1131148D01*
X1620060Y1108302D01*
X1620060Y1075993D01*
X1597214Y1053147D01*
X1564904Y1053147D01*
X1546952Y1071099D01*
X1546665Y1071299D01*
X1546393Y1071520D01*
X1546303Y1071550D01*
X1546226Y1071604D01*
X1545887Y1071691D01*
X1545556Y1071804D01*
X1545462Y1071801D01*
X1545371Y1071824D01*
X1545022Y1071788D01*
X1544672Y1071778D01*
X1544585Y1071743D01*
X1544492Y1071733D01*
X1544178Y1071578D01*
X1543853Y1071447D01*
X1543783Y1071383D01*
X1543699Y1071342D01*
X1543459Y1071088D01*
X1543200Y1070851D01*
X1543157Y1070768D01*
X1543093Y1070699D01*
X1542956Y1070377D01*
X1542796Y1070066D01*
X1542780Y1069962D01*
X1542748Y1069886D01*
X1542738Y1069685D01*
X1542685Y1069332D01*
X1542685Y654264D01*
X1498762Y610340D01*
X1498641Y610166D01*
X1498490Y610017D01*
X1498390Y609806D01*
X1498258Y609615D01*
X1498205Y609409D01*
X1498114Y609217D01*
X1498095Y608985D01*
X1498037Y608759D01*
X1498059Y608548D01*
X1498041Y608336D01*
X1498109Y608064D01*
X1498128Y607880D01*
X1498182Y607771D01*
X1498220Y607617D01*
X1498941Y605876D01*
X1498941Y590759D01*
X1493156Y576792D01*
X1482466Y566102D01*
X1468499Y560317D01*
X1453382Y560317D01*
G37*
%LPD*%
%LPC*%
G36*
X682495Y588669D02*
X682495Y588669D01*
X670733Y593541D01*
X661732Y602543D01*
X660454Y605627D01*
X660340Y605805D01*
X660260Y606002D01*
X660103Y606174D01*
X659977Y606370D01*
X659808Y606498D01*
X659664Y606655D01*
X659457Y606761D01*
X659271Y606902D01*
X659067Y606962D01*
X658879Y607059D01*
X658601Y607101D01*
X658424Y607154D01*
X658303Y607146D01*
X658145Y607169D01*
X612121Y607169D01*
X532647Y686644D01*
X532647Y892553D01*
X532601Y892807D01*
X532593Y893065D01*
X532523Y893238D01*
X532490Y893423D01*
X532359Y893645D01*
X532262Y893885D01*
X532136Y894023D01*
X532041Y894184D01*
X531840Y894347D01*
X531666Y894537D01*
X531500Y894623D01*
X531355Y894741D01*
X531110Y894824D01*
X530881Y894942D01*
X530667Y894974D01*
X530518Y895024D01*
X530362Y895020D01*
X530147Y895052D01*
X529993Y895052D01*
X507147Y917898D01*
X507147Y918053D01*
X507101Y918307D01*
X507093Y918565D01*
X507023Y918738D01*
X506990Y918923D01*
X506859Y919145D01*
X506762Y919385D01*
X506636Y919523D01*
X506541Y919684D01*
X506340Y919847D01*
X506166Y920037D01*
X506000Y920123D01*
X505855Y920241D01*
X505610Y920324D01*
X505381Y920442D01*
X505167Y920474D01*
X505018Y920524D01*
X504862Y920520D01*
X504647Y920552D01*
X430155Y920552D01*
X429900Y920506D01*
X429642Y920499D01*
X429469Y920429D01*
X429285Y920396D01*
X429063Y920265D01*
X428823Y920168D01*
X428685Y920042D01*
X428524Y919947D01*
X428361Y919746D01*
X428170Y919572D01*
X428085Y919406D01*
X427967Y919261D01*
X427884Y919016D01*
X427766Y918786D01*
X427734Y918572D01*
X427683Y918424D01*
X427688Y918267D01*
X427656Y918053D01*
X427656Y917898D01*
X404810Y895052D01*
X372500Y895052D01*
X349654Y917898D01*
X349654Y950207D01*
X372500Y973053D01*
X404810Y973053D01*
X427656Y950207D01*
X427656Y950053D01*
X427701Y949798D01*
X427709Y949540D01*
X427779Y949367D01*
X427812Y949183D01*
X427943Y948960D01*
X428040Y948721D01*
X428166Y948583D01*
X428261Y948422D01*
X428462Y948259D01*
X428636Y948068D01*
X428802Y947983D01*
X428947Y947865D01*
X429192Y947782D01*
X429421Y947664D01*
X429636Y947631D01*
X429784Y947581D01*
X429940Y947586D01*
X430155Y947553D01*
X504647Y947553D01*
X504902Y947599D01*
X505160Y947607D01*
X505333Y947677D01*
X505517Y947710D01*
X505740Y947841D01*
X505979Y947938D01*
X506117Y948064D01*
X506278Y948159D01*
X506441Y948359D01*
X506632Y948533D01*
X506717Y948699D01*
X506835Y948845D01*
X506918Y949090D01*
X507036Y949319D01*
X507069Y949533D01*
X507119Y949682D01*
X507114Y949838D01*
X507147Y950053D01*
X507147Y950207D01*
X529993Y973053D01*
X562302Y973053D01*
X585148Y950207D01*
X585148Y917898D01*
X562302Y895052D01*
X562147Y895052D01*
X561893Y895006D01*
X561635Y894999D01*
X561461Y894929D01*
X561277Y894896D01*
X561055Y894765D01*
X560815Y894668D01*
X560677Y894542D01*
X560516Y894447D01*
X560353Y894246D01*
X560163Y894072D01*
X560077Y893906D01*
X559959Y893761D01*
X559876Y893516D01*
X559758Y893286D01*
X559726Y893072D01*
X559676Y892924D01*
X559680Y892767D01*
X559648Y892553D01*
X559648Y698864D01*
X559677Y698700D01*
X559670Y698535D01*
X559755Y698269D01*
X559804Y697994D01*
X559889Y697851D01*
X559939Y697693D01*
X560151Y697406D01*
X560253Y697233D01*
X560318Y697180D01*
X560380Y697096D01*
X622574Y634903D01*
X622710Y634808D01*
X622822Y634686D01*
X623070Y634558D01*
X623299Y634398D01*
X623460Y634357D01*
X623607Y634281D01*
X623960Y634228D01*
X624155Y634178D01*
X624238Y634186D01*
X624341Y634171D01*
X658145Y634171D01*
X658354Y634208D01*
X658566Y634206D01*
X658786Y634286D01*
X659015Y634327D01*
X659198Y634435D01*
X659397Y634507D01*
X659575Y634658D01*
X659776Y634776D01*
X659910Y634941D01*
X660072Y635078D01*
X660217Y635319D01*
X660333Y635462D01*
X660372Y635577D01*
X660454Y635714D01*
X661732Y638797D01*
X670733Y647799D01*
X682495Y652671D01*
X747226Y652671D01*
X758987Y647799D01*
X767989Y638797D01*
X772861Y627035D01*
X772861Y614305D01*
X767989Y602543D01*
X758987Y593541D01*
X747226Y588669D01*
X682495Y588669D01*
G37*
%LPD*%
%LPC*%
G36*
X1687195Y84974D02*
X1687195Y84974D01*
X1672125Y91216D01*
X1660592Y102749D01*
X1654350Y117819D01*
X1654350Y134130D01*
X1660592Y149200D01*
X1672125Y160733D01*
X1687195Y166975D01*
X1703506Y166975D01*
X1718575Y160733D01*
X1722226Y157082D01*
X1722438Y156935D01*
X1722626Y156758D01*
X1722798Y156684D01*
X1722952Y156578D01*
X1723202Y156513D01*
X1723440Y156412D01*
X1723626Y156404D01*
X1723807Y156357D01*
X1724065Y156384D01*
X1724323Y156372D01*
X1724501Y156429D01*
X1724687Y156448D01*
X1724918Y156563D01*
X1725164Y156641D01*
X1725338Y156770D01*
X1725479Y156840D01*
X1725586Y156953D01*
X1725761Y157082D01*
X1768832Y200154D01*
X1768927Y200290D01*
X1769049Y200402D01*
X1769177Y200650D01*
X1769337Y200879D01*
X1769378Y201040D01*
X1769454Y201188D01*
X1769507Y201540D01*
X1769557Y201735D01*
X1769549Y201818D01*
X1769564Y201921D01*
X1769564Y557818D01*
X1769518Y558072D01*
X1769511Y558330D01*
X1769441Y558503D01*
X1769408Y558688D01*
X1769277Y558910D01*
X1769180Y559149D01*
X1769054Y559288D01*
X1768959Y559449D01*
X1768758Y559611D01*
X1768584Y559802D01*
X1768418Y559888D01*
X1768273Y560006D01*
X1768028Y560089D01*
X1767798Y560207D01*
X1767584Y560239D01*
X1767436Y560289D01*
X1767279Y560285D01*
X1767065Y560317D01*
X1753382Y560317D01*
X1739415Y566102D01*
X1728725Y576792D01*
X1722940Y590759D01*
X1722940Y605876D01*
X1728725Y619843D01*
X1739415Y630533D01*
X1753382Y636318D01*
X1768499Y636318D01*
X1782466Y630533D01*
X1793156Y619843D01*
X1798941Y605876D01*
X1798941Y590759D01*
X1796256Y584277D01*
X1796211Y584069D01*
X1796128Y583874D01*
X1796117Y583641D01*
X1796068Y583413D01*
X1796097Y583203D01*
X1796088Y582991D01*
X1796159Y582769D01*
X1796191Y582538D01*
X1796292Y582351D01*
X1796357Y582149D01*
X1796524Y581924D01*
X1796566Y581846D01*
X1796566Y189701D01*
X1737083Y130219D01*
X1736988Y130082D01*
X1736866Y129971D01*
X1736738Y129722D01*
X1736578Y129493D01*
X1736537Y129332D01*
X1736461Y129185D01*
X1736408Y128833D01*
X1736358Y128637D01*
X1736366Y128555D01*
X1736351Y128452D01*
X1736351Y117819D01*
X1730109Y102749D01*
X1718575Y91216D01*
X1703506Y84974D01*
X1687195Y84974D01*
G37*
%LPD*%
%LPC*%
G36*
X1453382Y660317D02*
X1453382Y660317D01*
X1439415Y666102D01*
X1428725Y676792D01*
X1424089Y687985D01*
X1423974Y688163D01*
X1423895Y688360D01*
X1423737Y688532D01*
X1423612Y688728D01*
X1423442Y688856D01*
X1423299Y689013D01*
X1423092Y689119D01*
X1422905Y689260D01*
X1422702Y689320D01*
X1422513Y689417D01*
X1422236Y689459D01*
X1422058Y689512D01*
X1421937Y689504D01*
X1421780Y689528D01*
X1297072Y689528D01*
X1296863Y689490D01*
X1296651Y689492D01*
X1296431Y689413D01*
X1296202Y689371D01*
X1296020Y689264D01*
X1295820Y689191D01*
X1295642Y689041D01*
X1295441Y688922D01*
X1295307Y688758D01*
X1295145Y688620D01*
X1295001Y688380D01*
X1294884Y688236D01*
X1294845Y688121D01*
X1294763Y687985D01*
X1293486Y684901D01*
X1284484Y675899D01*
X1272722Y671028D01*
X1259992Y671028D01*
X1248230Y675899D01*
X1239228Y684901D01*
X1234356Y696663D01*
X1234356Y709393D01*
X1239228Y721155D01*
X1248230Y730157D01*
X1259992Y735029D01*
X1272722Y735029D01*
X1284484Y730157D01*
X1293486Y721155D01*
X1294763Y718072D01*
X1294878Y717893D01*
X1294957Y717696D01*
X1295114Y717524D01*
X1295240Y717328D01*
X1295410Y717201D01*
X1295553Y717044D01*
X1295760Y716937D01*
X1295946Y716797D01*
X1296150Y716736D01*
X1296338Y716639D01*
X1296616Y716597D01*
X1296793Y716545D01*
X1296915Y716553D01*
X1297072Y716529D01*
X1425682Y716529D01*
X1425891Y716566D01*
X1426103Y716565D01*
X1426323Y716644D01*
X1426552Y716685D01*
X1426734Y716793D01*
X1426934Y716865D01*
X1427112Y717016D01*
X1427313Y717134D01*
X1427447Y717299D01*
X1427609Y717436D01*
X1427753Y717676D01*
X1427870Y717820D01*
X1427909Y717936D01*
X1427991Y718072D01*
X1428725Y719843D01*
X1439415Y730533D01*
X1445897Y733218D01*
X1446076Y733333D01*
X1446272Y733412D01*
X1446445Y733570D01*
X1446641Y733695D01*
X1446768Y733865D01*
X1446925Y734008D01*
X1447032Y734215D01*
X1447172Y734401D01*
X1447233Y734605D01*
X1447330Y734794D01*
X1447371Y735071D01*
X1447424Y735248D01*
X1447416Y735370D01*
X1447440Y735527D01*
X1447440Y761108D01*
X1447402Y761317D01*
X1447404Y761529D01*
X1447325Y761749D01*
X1447283Y761978D01*
X1447176Y762161D01*
X1447103Y762360D01*
X1446953Y762538D01*
X1446834Y762739D01*
X1446670Y762873D01*
X1446532Y763035D01*
X1446292Y763180D01*
X1446148Y763296D01*
X1446033Y763335D01*
X1445897Y763417D01*
X1439415Y766102D01*
X1428725Y776792D01*
X1422940Y790759D01*
X1422940Y805876D01*
X1428725Y819843D01*
X1439415Y830533D01*
X1453382Y836318D01*
X1468499Y836318D01*
X1482466Y830533D01*
X1493156Y819843D01*
X1498941Y805876D01*
X1498941Y790759D01*
X1493156Y776792D01*
X1482466Y766102D01*
X1475984Y763417D01*
X1475805Y763303D01*
X1475609Y763223D01*
X1475436Y763066D01*
X1475240Y762940D01*
X1475113Y762771D01*
X1474956Y762627D01*
X1474849Y762420D01*
X1474709Y762234D01*
X1474648Y762030D01*
X1474551Y761842D01*
X1474510Y761564D01*
X1474457Y761387D01*
X1474465Y761266D01*
X1474441Y761108D01*
X1474441Y735527D01*
X1474479Y735318D01*
X1474477Y735106D01*
X1474556Y734887D01*
X1474597Y734657D01*
X1474705Y734475D01*
X1474777Y734275D01*
X1474928Y734097D01*
X1475047Y733896D01*
X1475211Y733762D01*
X1475348Y733601D01*
X1475588Y733456D01*
X1475732Y733339D01*
X1475848Y733300D01*
X1475984Y733218D01*
X1482466Y730533D01*
X1493156Y719843D01*
X1498941Y705876D01*
X1498941Y690759D01*
X1493156Y676792D01*
X1482466Y666102D01*
X1468499Y660317D01*
X1453382Y660317D01*
G37*
%LPD*%
%LPC*%
G36*
X924104Y359593D02*
X924104Y359593D01*
X906336Y377361D01*
X906200Y377456D01*
X906088Y377579D01*
X905840Y377706D01*
X905610Y377866D01*
X905450Y377907D01*
X905302Y377983D01*
X904950Y378036D01*
X904755Y378086D01*
X904672Y378078D01*
X904569Y378093D01*
X738344Y378093D01*
X729704Y386734D01*
X728500Y387937D01*
X728364Y388032D01*
X728252Y388155D01*
X728004Y388282D01*
X727775Y388442D01*
X727614Y388483D01*
X727467Y388559D01*
X727114Y388612D01*
X726919Y388663D01*
X726836Y388654D01*
X726733Y388669D01*
X682495Y388669D01*
X670733Y393541D01*
X661732Y402543D01*
X656860Y414305D01*
X656860Y427035D01*
X661732Y438797D01*
X670733Y447799D01*
X682495Y452671D01*
X747226Y452671D01*
X758987Y447799D01*
X767989Y438797D01*
X772861Y427035D01*
X772861Y414305D01*
X770477Y408550D01*
X770412Y408253D01*
X770315Y407965D01*
X770319Y407824D01*
X770289Y407687D01*
X770332Y407385D01*
X770340Y407082D01*
X770393Y406951D01*
X770413Y406812D01*
X770557Y406545D01*
X770672Y406262D01*
X770766Y406158D01*
X770833Y406035D01*
X771062Y405834D01*
X771267Y405609D01*
X771392Y405545D01*
X771498Y405453D01*
X771783Y405344D01*
X772053Y405205D01*
X772210Y405181D01*
X772324Y405138D01*
X772509Y405136D01*
X772786Y405095D01*
X904569Y405095D01*
X904732Y405124D01*
X904898Y405117D01*
X905164Y405202D01*
X905439Y405251D01*
X905582Y405335D01*
X905740Y405386D01*
X906026Y405598D01*
X906200Y405700D01*
X906252Y405765D01*
X906336Y405827D01*
X924104Y423595D01*
X950614Y423595D01*
X969360Y404849D01*
X969360Y378339D01*
X950614Y359593D01*
X924104Y359593D01*
G37*
%LPD*%
%LPC*%
G36*
X798081Y1231579D02*
X798081Y1231579D01*
X784813Y1244847D01*
X784677Y1244941D01*
X784565Y1245064D01*
X784317Y1245192D01*
X784088Y1245351D01*
X783927Y1245393D01*
X783780Y1245469D01*
X783427Y1245522D01*
X783232Y1245572D01*
X783149Y1245563D01*
X783046Y1245579D01*
X734621Y1245579D01*
X642442Y1337758D01*
X642306Y1337852D01*
X642194Y1337975D01*
X641946Y1338103D01*
X641717Y1338262D01*
X641556Y1338304D01*
X641409Y1338380D01*
X641056Y1338433D01*
X640861Y1338483D01*
X640778Y1338474D01*
X640675Y1338490D01*
X613803Y1338490D01*
X613639Y1338461D01*
X613473Y1338468D01*
X613208Y1338383D01*
X612933Y1338334D01*
X612790Y1338249D01*
X612632Y1338199D01*
X612345Y1337987D01*
X612172Y1337884D01*
X612119Y1337820D01*
X612035Y1337758D01*
X598767Y1324490D01*
X572257Y1324490D01*
X553512Y1343235D01*
X553512Y1369746D01*
X572257Y1388491D01*
X598767Y1388491D01*
X612035Y1375223D01*
X612171Y1375129D01*
X612283Y1375006D01*
X612532Y1374878D01*
X612761Y1374719D01*
X612922Y1374677D01*
X613069Y1374601D01*
X613421Y1374548D01*
X613617Y1374498D01*
X613699Y1374507D01*
X613803Y1374491D01*
X656623Y1374491D01*
X748802Y1282312D01*
X748938Y1282218D01*
X749050Y1282095D01*
X749298Y1281967D01*
X749527Y1281808D01*
X749688Y1281766D01*
X749836Y1281690D01*
X750188Y1281637D01*
X750383Y1281587D01*
X750466Y1281596D01*
X750569Y1281580D01*
X783046Y1281580D01*
X783210Y1281609D01*
X783375Y1281602D01*
X783641Y1281687D01*
X783916Y1281736D01*
X784059Y1281821D01*
X784217Y1281871D01*
X784503Y1282083D01*
X784677Y1282186D01*
X784730Y1282250D01*
X784813Y1282312D01*
X798081Y1295580D01*
X824592Y1295580D01*
X843337Y1276835D01*
X843337Y1250324D01*
X824592Y1231579D01*
X798081Y1231579D01*
G37*
%LPD*%
%LPC*%
G36*
X1364904Y1053147D02*
X1364904Y1053147D01*
X1342058Y1075993D01*
X1342058Y1108302D01*
X1364904Y1131148D01*
X1397213Y1131148D01*
X1397323Y1131039D01*
X1397535Y1130891D01*
X1397723Y1130714D01*
X1397895Y1130641D01*
X1398048Y1130534D01*
X1398299Y1130469D01*
X1398536Y1130369D01*
X1398723Y1130360D01*
X1398904Y1130313D01*
X1399162Y1130340D01*
X1399419Y1130328D01*
X1399597Y1130385D01*
X1399783Y1130404D01*
X1400015Y1130519D01*
X1400261Y1130598D01*
X1400435Y1130726D01*
X1400575Y1130796D01*
X1400683Y1130910D01*
X1400857Y1131039D01*
X1418927Y1149109D01*
X1419022Y1149245D01*
X1419145Y1149357D01*
X1419273Y1149605D01*
X1419432Y1149834D01*
X1419473Y1149995D01*
X1419549Y1150142D01*
X1419602Y1150495D01*
X1419653Y1150690D01*
X1419644Y1150773D01*
X1419659Y1150876D01*
X1419659Y1219487D01*
X1419614Y1219741D01*
X1419606Y1219999D01*
X1419536Y1220172D01*
X1419503Y1220356D01*
X1419372Y1220579D01*
X1419275Y1220818D01*
X1419149Y1220957D01*
X1419054Y1221117D01*
X1418853Y1221280D01*
X1418679Y1221471D01*
X1418513Y1221557D01*
X1418368Y1221675D01*
X1418123Y1221758D01*
X1417894Y1221876D01*
X1417680Y1221908D01*
X1417531Y1221958D01*
X1417375Y1221954D01*
X1417160Y1221986D01*
X1417006Y1221986D01*
X1394159Y1244832D01*
X1394159Y1277141D01*
X1417006Y1299987D01*
X1449315Y1299987D01*
X1472161Y1277141D01*
X1472161Y1244832D01*
X1449315Y1221986D01*
X1449160Y1221986D01*
X1448906Y1221940D01*
X1448648Y1221933D01*
X1448474Y1221863D01*
X1448290Y1221830D01*
X1448068Y1221698D01*
X1447828Y1221602D01*
X1447690Y1221475D01*
X1447529Y1221380D01*
X1447366Y1221180D01*
X1447176Y1221006D01*
X1447090Y1220840D01*
X1446972Y1220695D01*
X1446889Y1220449D01*
X1446771Y1220220D01*
X1446739Y1220006D01*
X1446688Y1219858D01*
X1446693Y1219701D01*
X1446661Y1219487D01*
X1446661Y1138656D01*
X1419950Y1111946D01*
X1419803Y1111734D01*
X1419625Y1111546D01*
X1419552Y1111374D01*
X1419446Y1111220D01*
X1419381Y1110970D01*
X1419280Y1110732D01*
X1419272Y1110546D01*
X1419225Y1110364D01*
X1419252Y1110107D01*
X1419240Y1109849D01*
X1419297Y1109671D01*
X1419316Y1109485D01*
X1419430Y1109254D01*
X1419509Y1109008D01*
X1419638Y1108834D01*
X1419707Y1108693D01*
X1419822Y1108585D01*
X1419950Y1108411D01*
X1420060Y1108302D01*
X1420060Y1075993D01*
X1397214Y1053147D01*
X1364904Y1053147D01*
G37*
%LPD*%
%LPC*%
G36*
X1977029Y718404D02*
X1977029Y718404D01*
X1959261Y736172D01*
X1959125Y736267D01*
X1959013Y736389D01*
X1958765Y736517D01*
X1958536Y736677D01*
X1958375Y736718D01*
X1958228Y736794D01*
X1957875Y736847D01*
X1957680Y736897D01*
X1957597Y736889D01*
X1957494Y736904D01*
X1837708Y736904D01*
X1797167Y777446D01*
X1796917Y777619D01*
X1796688Y777820D01*
X1796557Y777870D01*
X1796441Y777950D01*
X1796146Y778026D01*
X1795862Y778134D01*
X1795722Y778136D01*
X1795586Y778171D01*
X1795282Y778139D01*
X1794978Y778142D01*
X1794846Y778094D01*
X1794707Y778080D01*
X1794434Y777945D01*
X1794147Y777841D01*
X1794040Y777751D01*
X1793914Y777688D01*
X1793705Y777467D01*
X1793473Y777270D01*
X1793391Y777134D01*
X1793308Y777046D01*
X1793235Y776875D01*
X1793230Y776866D01*
X1782466Y766102D01*
X1768499Y760317D01*
X1753382Y760317D01*
X1739415Y766102D01*
X1728725Y776792D01*
X1722940Y790759D01*
X1722940Y805876D01*
X1728725Y819843D01*
X1739415Y830533D01*
X1753382Y836318D01*
X1768499Y836318D01*
X1782466Y830533D01*
X1793156Y819843D01*
X1795841Y813361D01*
X1795955Y813182D01*
X1796035Y812986D01*
X1796192Y812813D01*
X1796318Y812617D01*
X1796488Y812490D01*
X1796631Y812333D01*
X1796838Y812226D01*
X1797024Y812086D01*
X1797228Y812025D01*
X1797416Y811928D01*
X1797694Y811887D01*
X1797871Y811834D01*
X1797992Y811842D01*
X1798150Y811818D01*
X1800980Y811818D01*
X1848161Y764637D01*
X1848278Y764556D01*
X1848330Y764499D01*
X1848343Y764492D01*
X1848409Y764420D01*
X1848657Y764292D01*
X1848886Y764133D01*
X1849047Y764091D01*
X1849195Y764016D01*
X1849547Y763963D01*
X1849742Y763912D01*
X1849825Y763921D01*
X1849928Y763905D01*
X1957494Y763905D01*
X1957658Y763935D01*
X1957823Y763927D01*
X1958089Y764012D01*
X1958364Y764062D01*
X1958507Y764146D01*
X1958665Y764197D01*
X1958952Y764408D01*
X1959125Y764511D01*
X1959176Y764573D01*
X1959204Y764590D01*
X1959215Y764603D01*
X1959261Y764637D01*
X1977029Y782405D01*
X2003540Y782405D01*
X2022285Y763660D01*
X2022285Y737150D01*
X2003540Y718404D01*
X1977029Y718404D01*
G37*
%LPD*%
%LPC*%
G36*
X1296172Y325312D02*
X1296172Y325312D01*
X1283935Y337549D01*
X1283935Y346965D01*
X1283906Y347128D01*
X1283913Y347294D01*
X1283828Y347560D01*
X1283779Y347835D01*
X1283695Y347978D01*
X1283644Y348136D01*
X1283432Y348422D01*
X1283330Y348596D01*
X1283265Y348648D01*
X1283203Y348732D01*
X1084678Y547257D01*
X1084678Y630942D01*
X1084649Y631105D01*
X1084656Y631271D01*
X1084571Y631537D01*
X1084522Y631812D01*
X1084438Y631955D01*
X1084387Y632113D01*
X1084175Y632399D01*
X1084073Y632573D01*
X1084008Y632625D01*
X1083946Y632709D01*
X1077289Y639367D01*
X1077289Y656673D01*
X1089526Y668910D01*
X1106832Y668910D01*
X1119069Y656673D01*
X1119069Y639367D01*
X1112412Y632709D01*
X1112317Y632573D01*
X1112194Y632461D01*
X1112067Y632213D01*
X1111907Y631984D01*
X1111866Y631823D01*
X1111790Y631675D01*
X1111737Y631323D01*
X1111687Y631128D01*
X1111695Y631045D01*
X1111680Y630942D01*
X1111680Y559477D01*
X1111709Y559313D01*
X1111701Y559147D01*
X1111787Y558882D01*
X1111836Y558607D01*
X1111920Y558464D01*
X1111971Y558306D01*
X1112183Y558019D01*
X1112285Y557846D01*
X1112350Y557793D01*
X1112412Y557709D01*
X1302296Y367825D01*
X1302432Y367730D01*
X1302544Y367608D01*
X1302792Y367480D01*
X1303022Y367320D01*
X1303182Y367279D01*
X1303330Y367203D01*
X1303682Y367150D01*
X1303877Y367100D01*
X1303960Y367108D01*
X1304063Y367093D01*
X1313479Y367093D01*
X1325716Y354856D01*
X1325716Y337549D01*
X1313479Y325312D01*
X1296172Y325312D01*
G37*
%LPD*%
%LPC*%
G36*
X682495Y688669D02*
X682495Y688669D01*
X670733Y693541D01*
X661732Y702543D01*
X656860Y714305D01*
X656860Y727035D01*
X661732Y738797D01*
X670733Y747799D01*
X682495Y752671D01*
X747226Y752671D01*
X758987Y747799D01*
X767989Y738797D01*
X772861Y727035D01*
X772861Y714305D01*
X767989Y702543D01*
X758987Y693541D01*
X747226Y688669D01*
X682495Y688669D01*
G37*
%LPD*%
%LPC*%
G36*
X1587195Y84974D02*
X1587195Y84974D01*
X1572125Y91216D01*
X1560592Y102749D01*
X1554350Y117819D01*
X1554350Y134130D01*
X1560592Y149200D01*
X1572125Y160733D01*
X1587195Y166975D01*
X1603506Y166975D01*
X1618575Y160733D01*
X1630109Y149200D01*
X1636351Y134130D01*
X1636351Y117819D01*
X1630109Y102749D01*
X1618575Y91216D01*
X1603506Y84974D01*
X1587195Y84974D01*
G37*
%LPD*%
%LPC*%
G36*
X1753382Y660317D02*
X1753382Y660317D01*
X1739415Y666102D01*
X1728725Y676792D01*
X1722940Y690759D01*
X1722940Y705876D01*
X1728725Y719843D01*
X1739415Y730533D01*
X1753382Y736318D01*
X1768499Y736318D01*
X1782466Y730533D01*
X1793156Y719843D01*
X1798941Y705876D01*
X1798941Y690759D01*
X1793156Y676792D01*
X1782466Y666102D01*
X1768499Y660317D01*
X1753382Y660317D01*
G37*
%LPD*%
%LPC*%
G36*
X1453382Y860317D02*
X1453382Y860317D01*
X1439415Y866102D01*
X1428725Y876792D01*
X1422940Y890759D01*
X1422940Y905876D01*
X1428725Y919843D01*
X1439415Y930533D01*
X1453382Y936318D01*
X1468499Y936318D01*
X1482466Y930533D01*
X1493156Y919843D01*
X1498941Y905876D01*
X1498941Y890759D01*
X1493156Y876792D01*
X1482466Y866102D01*
X1468499Y860317D01*
X1453382Y860317D01*
G37*
%LPD*%
%LPC*%
G36*
X1981752Y1196987D02*
X1981752Y1196987D01*
X1981752Y1231988D01*
X2009901Y1231988D01*
X2016120Y1231003D01*
X2022108Y1229058D01*
X2027719Y1226199D01*
X2032812Y1222499D01*
X2037264Y1218046D01*
X2040965Y1212953D01*
X2043824Y1207342D01*
X2045769Y1201354D01*
X2046461Y1196987D01*
X1981752Y1196987D01*
G37*
%LPD*%
%LPC*%
G36*
X166065Y1261902D02*
X166065Y1261902D01*
X166065Y1296903D01*
X194214Y1296903D01*
X200433Y1295918D01*
X206421Y1293973D01*
X212032Y1291114D01*
X217125Y1287414D01*
X221577Y1282961D01*
X225278Y1277868D01*
X228136Y1272258D01*
X230082Y1266270D01*
X230774Y1261902D01*
X166065Y1261902D01*
G37*
%LPD*%
%LPC*%
G36*
X1980425Y137400D02*
X1980425Y137400D01*
X1980425Y172401D01*
X2008574Y172401D01*
X2014793Y171416D01*
X2020781Y169471D01*
X2026392Y166612D01*
X2031485Y162912D01*
X2035937Y158459D01*
X2039637Y153366D01*
X2042496Y147755D01*
X2044442Y141767D01*
X2045134Y137400D01*
X1980425Y137400D01*
G37*
%LPD*%
%LPC*%
G36*
X1905719Y137400D02*
X1905719Y137400D01*
X1906410Y141767D01*
X1908356Y147755D01*
X1911215Y153366D01*
X1914915Y158459D01*
X1919368Y162912D01*
X1924461Y166612D01*
X1930071Y169471D01*
X1936059Y171416D01*
X1942278Y172401D01*
X1970427Y172401D01*
X1970427Y137400D01*
X1905719Y137400D01*
G37*
%LPD*%
%LPC*%
G36*
X1907046Y1196987D02*
X1907046Y1196987D01*
X1907738Y1201354D01*
X1909683Y1207342D01*
X1912542Y1212953D01*
X1916242Y1218046D01*
X1920695Y1222499D01*
X1925788Y1226199D01*
X1931398Y1229058D01*
X1937387Y1231003D01*
X1943605Y1231988D01*
X1971754Y1231988D01*
X1971754Y1196987D01*
X1907046Y1196987D01*
G37*
%LPD*%
%LPC*%
G36*
X1980425Y92400D02*
X1980425Y92400D01*
X1980425Y127401D01*
X2045134Y127401D01*
X2044442Y123034D01*
X2042496Y117046D01*
X2039637Y111435D01*
X2035937Y106342D01*
X2031485Y101890D01*
X2026392Y98189D01*
X2020781Y95330D01*
X2014793Y93385D01*
X2008574Y92400D01*
X1980425Y92400D01*
G37*
%LPD*%
%LPC*%
G36*
X166065Y1216902D02*
X166065Y1216902D01*
X166065Y1251904D01*
X230774Y1251904D01*
X230082Y1247536D01*
X228136Y1241548D01*
X225278Y1235937D01*
X221577Y1230844D01*
X217125Y1226392D01*
X212032Y1222691D01*
X206421Y1219833D01*
X200433Y1217887D01*
X194214Y1216902D01*
X166065Y1216902D01*
G37*
%LPD*%
%LPC*%
G36*
X1981752Y1151987D02*
X1981752Y1151987D01*
X1981752Y1186988D01*
X2046461Y1186988D01*
X2045769Y1182621D01*
X2043824Y1176633D01*
X2040965Y1171022D01*
X2037264Y1165929D01*
X2032812Y1161477D01*
X2027719Y1157776D01*
X2022108Y1154917D01*
X2016120Y1152972D01*
X2009901Y1151987D01*
X1981752Y1151987D01*
G37*
%LPD*%
%LPC*%
G36*
X1942278Y92400D02*
X1942278Y92400D01*
X1936059Y93385D01*
X1930071Y95330D01*
X1924461Y98189D01*
X1919368Y101890D01*
X1914915Y106342D01*
X1911215Y111435D01*
X1908356Y117046D01*
X1906410Y123034D01*
X1905719Y127401D01*
X1970427Y127401D01*
X1970427Y92400D01*
X1942278Y92400D01*
G37*
%LPD*%
%LPC*%
G36*
X1943605Y1151987D02*
X1943605Y1151987D01*
X1937387Y1152972D01*
X1931398Y1154917D01*
X1925788Y1157776D01*
X1920695Y1161477D01*
X1916242Y1165929D01*
X1912542Y1171022D01*
X1909683Y1176633D01*
X1907738Y1182621D01*
X1907046Y1186988D01*
X1971754Y1186988D01*
X1971754Y1151987D01*
X1943605Y1151987D01*
G37*
%LPD*%
%LPC*%
G36*
X419859Y725669D02*
X419859Y725669D01*
X419859Y756671D01*
X444406Y756671D01*
X451361Y755287D01*
X457914Y752573D01*
X463809Y748634D01*
X468824Y743619D01*
X472763Y737723D01*
X475477Y731171D01*
X476572Y725669D01*
X419859Y725669D01*
G37*
%LPD*%
%LPC*%
G36*
X419859Y684669D02*
X419859Y684669D01*
X419859Y715671D01*
X476572Y715671D01*
X475477Y710169D01*
X472763Y703617D01*
X468824Y697721D01*
X463809Y692706D01*
X457914Y688767D01*
X451361Y686053D01*
X444406Y684669D01*
X419859Y684669D01*
G37*
%LPD*%
%LPC*%
G36*
X1188656Y145224D02*
X1188656Y145224D01*
X1188656Y188032D01*
X1194897Y187043D01*
X1202082Y184709D01*
X1208815Y181278D01*
X1214927Y176838D01*
X1220269Y171495D01*
X1224710Y165383D01*
X1228140Y158651D01*
X1230475Y151465D01*
X1231464Y145224D01*
X1188656Y145224D01*
G37*
%LPD*%
%LPC*%
G36*
X1188656Y135225D02*
X1188656Y135225D01*
X1231464Y135225D01*
X1230475Y128984D01*
X1228140Y121799D01*
X1224710Y115066D01*
X1220269Y108954D01*
X1214927Y103612D01*
X1208815Y99171D01*
X1202082Y95741D01*
X1194897Y93406D01*
X1188656Y92417D01*
X1188656Y135225D01*
G37*
%LPD*%
%LPC*%
G36*
X1135849Y145224D02*
X1135849Y145224D01*
X1136838Y151465D01*
X1139172Y158651D01*
X1142603Y165383D01*
X1147043Y171495D01*
X1152386Y176838D01*
X1158498Y181278D01*
X1165230Y184709D01*
X1172416Y187043D01*
X1178657Y188032D01*
X1178657Y145224D01*
X1135849Y145224D01*
G37*
%LPD*%
%LPC*%
G36*
X1172416Y93406D02*
X1172416Y93406D01*
X1165230Y95741D01*
X1158498Y99171D01*
X1152386Y103612D01*
X1147043Y108954D01*
X1142603Y115066D01*
X1139172Y121799D01*
X1136838Y128984D01*
X1135849Y135225D01*
X1178657Y135225D01*
X1178657Y92417D01*
X1172416Y93406D01*
G37*
%LPD*%
%LPC*%
G36*
X1500349Y130974D02*
X1500349Y130974D01*
X1500349Y170744D01*
X1505888Y169867D01*
X1512625Y167678D01*
X1518935Y164463D01*
X1524667Y160299D01*
X1529675Y155291D01*
X1533838Y149560D01*
X1537054Y143249D01*
X1539243Y136512D01*
X1540120Y130974D01*
X1500349Y130974D01*
G37*
%LPD*%
%LPC*%
G36*
X1500349Y120975D02*
X1500349Y120975D01*
X1540120Y120975D01*
X1539243Y115437D01*
X1537054Y108700D01*
X1533838Y102389D01*
X1529675Y96658D01*
X1524667Y91650D01*
X1518935Y87486D01*
X1512625Y84271D01*
X1505888Y82082D01*
X1500349Y81205D01*
X1500349Y120975D01*
G37*
%LPD*%
%LPC*%
G36*
X1450580Y130974D02*
X1450580Y130974D01*
X1451458Y136512D01*
X1453647Y143249D01*
X1456862Y149560D01*
X1461026Y155291D01*
X1466034Y160299D01*
X1471765Y164463D01*
X1478076Y167678D01*
X1484813Y169867D01*
X1490351Y170744D01*
X1490351Y130974D01*
X1450580Y130974D01*
G37*
%LPD*%
%LPC*%
G36*
X1484813Y82082D02*
X1484813Y82082D01*
X1478076Y84271D01*
X1471765Y87486D01*
X1466034Y91650D01*
X1461026Y96658D01*
X1456862Y102389D01*
X1453647Y108700D01*
X1451458Y115437D01*
X1450580Y120975D01*
X1490351Y120975D01*
X1490351Y81205D01*
X1484813Y82082D01*
G37*
%LPD*%
%LPC*%
G36*
X1238159Y1265986D02*
X1238159Y1265986D01*
X1238159Y1303987D01*
X1250972Y1303987D01*
X1276161Y1278798D01*
X1276161Y1265986D01*
X1238159Y1265986D01*
G37*
%LPD*%
%LPC*%
G36*
X1238159Y1217986D02*
X1238159Y1217986D01*
X1238159Y1255987D01*
X1276161Y1255987D01*
X1276161Y1243175D01*
X1250972Y1217986D01*
X1238159Y1217986D01*
G37*
%LPD*%
%LPC*%
G36*
X1190159Y1265986D02*
X1190159Y1265986D01*
X1190159Y1278798D01*
X1215349Y1303987D01*
X1228161Y1303987D01*
X1228161Y1265986D01*
X1190159Y1265986D01*
G37*
%LPD*%
%LPC*%
G36*
X1215349Y1217986D02*
X1215349Y1217986D01*
X1190159Y1243175D01*
X1190159Y1255987D01*
X1228161Y1255987D01*
X1228161Y1217986D01*
X1215349Y1217986D01*
G37*
%LPD*%
%LPC*%
G36*
X816336Y1368578D02*
X816336Y1368578D01*
X816336Y1399580D01*
X826248Y1399580D01*
X847337Y1378491D01*
X847337Y1368578D01*
X816336Y1368578D01*
G37*
%LPD*%
%LPC*%
G36*
X942528Y739366D02*
X942528Y739366D01*
X942528Y770367D01*
X952441Y770367D01*
X973530Y749279D01*
X973530Y739366D01*
X942528Y739366D01*
G37*
%LPD*%
%LPC*%
G36*
X590511Y1261490D02*
X590511Y1261490D01*
X590511Y1292491D01*
X600424Y1292491D01*
X621513Y1271403D01*
X621513Y1261490D01*
X590511Y1261490D01*
G37*
%LPD*%
%LPC*%
G36*
X942358Y496593D02*
X942358Y496593D01*
X942358Y527595D01*
X952271Y527595D01*
X973360Y506506D01*
X973360Y496593D01*
X942358Y496593D01*
G37*
%LPD*%
%LPC*%
G36*
X379408Y1270028D02*
X379408Y1270028D01*
X379408Y1301029D01*
X389321Y1301029D01*
X410410Y1279941D01*
X410410Y1270028D01*
X379408Y1270028D01*
G37*
%LPD*%
%LPC*%
G36*
X901528Y739366D02*
X901528Y739366D01*
X901528Y749279D01*
X922617Y770367D01*
X932530Y770367D01*
X932530Y739366D01*
X901528Y739366D01*
G37*
%LPD*%
%LPC*%
G36*
X338408Y1270028D02*
X338408Y1270028D01*
X338408Y1279941D01*
X359497Y1301029D01*
X369410Y1301029D01*
X369410Y1270028D01*
X338408Y1270028D01*
G37*
%LPD*%
%LPC*%
G36*
X590511Y1220490D02*
X590511Y1220490D01*
X590511Y1251491D01*
X621513Y1251491D01*
X621513Y1241579D01*
X600424Y1220490D01*
X590511Y1220490D01*
G37*
%LPD*%
%LPC*%
G36*
X942528Y698366D02*
X942528Y698366D01*
X942528Y729368D01*
X973530Y729368D01*
X973530Y719455D01*
X952441Y698366D01*
X942528Y698366D01*
G37*
%LPD*%
%LPC*%
G36*
X549512Y1261490D02*
X549512Y1261490D01*
X549512Y1271403D01*
X570600Y1292491D01*
X580513Y1292491D01*
X580513Y1261490D01*
X549512Y1261490D01*
G37*
%LPD*%
%LPC*%
G36*
X901358Y496593D02*
X901358Y496593D01*
X901358Y506506D01*
X922447Y527595D01*
X932360Y527595D01*
X932360Y496593D01*
X901358Y496593D01*
G37*
%LPD*%
%LPC*%
G36*
X942358Y455593D02*
X942358Y455593D01*
X942358Y486595D01*
X973360Y486595D01*
X973360Y476682D01*
X952271Y455593D01*
X942358Y455593D01*
G37*
%LPD*%
%LPC*%
G36*
X379408Y1229028D02*
X379408Y1229028D01*
X379408Y1260030D01*
X410410Y1260030D01*
X410410Y1250117D01*
X389321Y1229028D01*
X379408Y1229028D01*
G37*
%LPD*%
%LPC*%
G36*
X816336Y1327579D02*
X816336Y1327579D01*
X816336Y1358580D01*
X847337Y1358580D01*
X847337Y1348667D01*
X826248Y1327579D01*
X816336Y1327579D01*
G37*
%LPD*%
%LPC*%
G36*
X775336Y1368578D02*
X775336Y1368578D01*
X775336Y1378491D01*
X796424Y1399580D01*
X806337Y1399580D01*
X806337Y1368578D01*
X775336Y1368578D01*
G37*
%LPD*%
%LPC*%
G36*
X570600Y1220490D02*
X570600Y1220490D01*
X549512Y1241579D01*
X549512Y1251491D01*
X580513Y1251491D01*
X580513Y1220490D01*
X570600Y1220490D01*
G37*
%LPD*%
%LPC*%
G36*
X922617Y698366D02*
X922617Y698366D01*
X901528Y719455D01*
X901528Y729368D01*
X932530Y729368D01*
X932530Y698366D01*
X922617Y698366D01*
G37*
%LPD*%
%LPC*%
G36*
X359497Y1229028D02*
X359497Y1229028D01*
X338408Y1250117D01*
X338408Y1260030D01*
X369410Y1260030D01*
X369410Y1229028D01*
X359497Y1229028D01*
G37*
%LPD*%
%LPC*%
G36*
X922447Y455593D02*
X922447Y455593D01*
X901358Y476682D01*
X901358Y486595D01*
X932360Y486595D01*
X932360Y455593D01*
X922447Y455593D01*
G37*
%LPD*%
%LPC*%
G36*
X796424Y1327579D02*
X796424Y1327579D01*
X775336Y1348667D01*
X775336Y1358580D01*
X806337Y1358580D01*
X806337Y1327579D01*
X796424Y1327579D01*
G37*
%LPD*%
%LPC*%
G36*
X107046Y165328D02*
X107046Y165328D01*
X107046Y196040D01*
X112547Y194946D01*
X119100Y192232D01*
X124996Y188292D01*
X130010Y183278D01*
X133950Y177382D01*
X136664Y170830D01*
X137758Y165328D01*
X107046Y165328D01*
G37*
%LPD*%
%LPC*%
G36*
X107046Y155329D02*
X107046Y155329D01*
X137758Y155329D01*
X136664Y149828D01*
X133950Y143275D01*
X130010Y137380D01*
X124996Y132365D01*
X119100Y128426D01*
X112547Y125712D01*
X107046Y124617D01*
X107046Y155329D01*
G37*
%LPD*%
%LPC*%
G36*
X937358Y491593D02*
X937358Y491593D01*
X937358Y491595D01*
X937360Y491595D01*
X937360Y491593D01*
X937358Y491593D01*
G37*
%LPD*%
%LPC*%
G36*
X1233159Y1260985D02*
X1233159Y1260985D01*
X1233159Y1260988D01*
X1233161Y1260988D01*
X1233161Y1260985D01*
X1233159Y1260985D01*
G37*
%LPD*%
%LPC*%
G36*
X1183655Y140223D02*
X1183655Y140223D01*
X1183655Y140226D01*
X1183658Y140226D01*
X1183658Y140223D01*
X1183655Y140223D01*
G37*
%LPD*%
%LPC*%
G36*
X374408Y1265027D02*
X374408Y1265027D01*
X374408Y1265030D01*
X374410Y1265030D01*
X374410Y1265027D01*
X374408Y1265027D01*
G37*
%LPD*%
%LPC*%
G36*
X585511Y1256489D02*
X585511Y1256489D01*
X585511Y1256492D01*
X585514Y1256492D01*
X585514Y1256489D01*
X585511Y1256489D01*
G37*
%LPD*%
%LPC*%
G36*
X1975425Y132399D02*
X1975425Y132399D01*
X1975425Y132402D01*
X1975427Y132402D01*
X1975427Y132399D01*
X1975425Y132399D01*
G37*
%LPD*%
%LPC*%
G36*
X937528Y734366D02*
X937528Y734366D01*
X937528Y734368D01*
X937530Y734368D01*
X937530Y734366D01*
X937528Y734366D01*
G37*
%LPD*%
%LPC*%
G36*
X811335Y1363578D02*
X811335Y1363578D01*
X811335Y1363581D01*
X811338Y1363581D01*
X811338Y1363578D01*
X811335Y1363578D01*
G37*
%LPD*%
%LPC*%
G36*
X1495349Y125973D02*
X1495349Y125973D01*
X1495349Y125976D01*
X1495352Y125976D01*
X1495352Y125973D01*
X1495349Y125973D01*
G37*
%LPD*%
%LPC*%
G36*
X1976752Y1191986D02*
X1976752Y1191986D01*
X1976752Y1191989D01*
X1976755Y1191989D01*
X1976755Y1191986D01*
X1976752Y1191986D01*
G37*
%LPD*%
D10*
X937529Y834367D03*
X937529Y734367D03*
D11*
X937359Y391594D03*
X937359Y491594D03*
X1990285Y650405D03*
X1990285Y750405D03*
D10*
X374409Y1365029D03*
X374409Y1265029D03*
X585512Y1356491D03*
X585512Y1256491D03*
D11*
X811336Y1263579D03*
X811336Y1363579D03*
D12*
X181102Y469680D03*
D13*
X101102Y469680D03*
D12*
X182047Y160329D03*
D13*
X102047Y160329D03*
D11*
X1266357Y783028D03*
D13*
X1266357Y703028D03*
D14*
X1183656Y140225D03*
X868696Y140225D03*
X416220Y141711D03*
X731180Y141711D03*
D15*
X440860Y720670D02*
X388860Y720670D01*
X388860Y620670D02*
X440860Y620670D01*
X688860Y620670D02*
X740860Y620670D01*
X740860Y720670D02*
X688860Y720670D01*
X440860Y520670D02*
X388860Y520670D01*
X388860Y420670D02*
X440860Y420670D01*
X688860Y520670D02*
X740860Y520670D01*
X740860Y420670D02*
X688860Y420670D01*
D16*
X1760940Y598318D03*
X1760940Y698318D03*
X1460940Y698318D03*
X1460940Y598318D03*
X1760940Y798318D03*
X1760940Y898318D03*
X1460940Y798318D03*
X1460940Y898318D03*
D17*
X1945426Y132401D02*
X2005426Y132401D01*
X2005426Y232401D02*
X1945426Y232401D01*
X191066Y1256903D02*
X131066Y1256903D01*
X131066Y1356903D02*
X191066Y1356903D01*
D18*
X388655Y934053D03*
X188655Y934053D03*
X746147Y934053D03*
X546147Y934053D03*
X1773054Y1264530D03*
X1573054Y1264530D03*
D19*
X1233160Y1260987D03*
X1433160Y1260987D03*
D18*
X1581059Y1092147D03*
X1381059Y1092147D03*
D17*
X1946753Y1291988D02*
X2006753Y1291988D01*
X2006753Y1191988D02*
X1946753Y1191988D01*
D20*
X1595350Y125975D03*
X1495350Y125975D03*
X1695350Y125975D03*
D21*
X366283Y1356903D02*
X161066Y1356903D01*
X366283Y1356903D02*
X374409Y1365029D01*
X161066Y1356903D02*
X125120Y1356903D01*
X110775Y934053D02*
X188655Y934053D01*
X76794Y1308577D02*
X125120Y1356903D01*
X76794Y1308577D02*
X76794Y968034D01*
X110775Y934053D01*
D22*
X480360Y537032D02*
X480360Y504309D01*
X372499Y581170D02*
X349360Y604309D01*
X349360Y773347D02*
X188655Y934053D01*
X414860Y438809D02*
X414860Y420670D01*
X414860Y438809D02*
X480360Y504309D01*
X480360Y537032D02*
X436222Y581170D01*
X372499Y581170D01*
X349360Y604309D02*
X349360Y773347D01*
X414860Y420670D02*
X561301Y420670D01*
X599275Y458644D01*
D23*
X599275Y458644D03*
D22*
X1529185Y1220661D02*
X1573054Y1264530D01*
X1529185Y1220661D02*
X1529185Y659856D01*
X1467647Y598318D01*
X1460940Y598318D01*
X794000Y520670D02*
X714860Y520670D01*
X844299Y570969D02*
X844299Y778216D01*
X900450Y834367D01*
X937529Y834367D01*
X844299Y570969D02*
X794000Y520670D01*
X837843Y934053D02*
X746147Y934053D01*
X837843Y934053D02*
X937529Y834367D01*
X472819Y620670D02*
X414860Y620670D01*
X572819Y520670D02*
X714860Y520670D01*
X572819Y520670D02*
X472819Y620670D01*
X546147Y934053D02*
X388655Y934053D01*
X546147Y934053D02*
X546147Y692236D01*
X617713Y620670D02*
X714860Y620670D01*
X617713Y620670D02*
X546147Y692236D01*
X152093Y520670D02*
X101102Y469680D01*
X152093Y520670D02*
X414860Y520670D01*
X714860Y420670D02*
X743936Y391594D01*
X937359Y391594D01*
X181102Y469680D02*
X50815Y339392D01*
X50273Y91709D01*
X94627Y47355D01*
X215521Y47165D01*
X646540Y46486D01*
X689836Y46486D01*
X732119Y88770D01*
X732119Y140773D01*
X731180Y141711D01*
X732667Y140225D01*
X868696Y140225D01*
D21*
X649167Y1356491D02*
X585512Y1356491D01*
X742078Y1263579D02*
X811336Y1263579D01*
X742078Y1263579D02*
X649167Y1356491D01*
D22*
X397602Y160329D02*
X182047Y160329D01*
X397602Y160329D02*
X416220Y141711D01*
X558572Y284064D01*
X1451968Y284064D02*
X1650221Y482316D01*
X1650221Y787598D01*
X1760940Y898318D01*
X1451968Y284064D02*
X558572Y284064D01*
X1990285Y650405D02*
X2090083Y550607D01*
X2090083Y347057D02*
X1975426Y232401D01*
X2090083Y347057D02*
X2090083Y550607D01*
X1990285Y650405D02*
X2072370Y732490D01*
X1773054Y1264530D02*
X1825068Y1316545D01*
X2011772Y1316545D01*
X2072370Y1255946D01*
X2072370Y732490D01*
D23*
X1098179Y648020D03*
D22*
X1098179Y552849D01*
X1304826Y346203D01*
D23*
X1304826Y346203D03*
D22*
X1760940Y798318D02*
X1795388Y798318D01*
X1843301Y750405D02*
X1990285Y750405D01*
X1843301Y750405D02*
X1795388Y798318D01*
X1760940Y598318D02*
X1783065Y576193D01*
X1783065Y195294D01*
X1713746Y125975D01*
X1695350Y125975D01*
X1433160Y1144249D02*
X1433160Y1260987D01*
X1433160Y1144249D02*
X1381059Y1092147D01*
X1456230Y703028D02*
X1266357Y703028D01*
X1456230Y703028D02*
X1456666Y702593D01*
X1460940Y698318D01*
X1460940Y706867D02*
X1460940Y798318D01*
X1460940Y706867D02*
X1456666Y702593D01*
X1976753Y1291988D02*
X1890115Y1378626D01*
X1573508Y1379126D01*
X1573471Y1379163D01*
X1390165Y1379163D01*
X1390436Y1378892D01*
X1304826Y821497D02*
X1266357Y783028D01*
X1304826Y1293281D02*
X1390436Y1378892D01*
X1304826Y1293281D02*
X1304826Y821497D01*
M02*
