G04 EAGLE Gerber X2 export*
%TF.Part,Single*%
%TF.FileFunction,Copper,L1,Top,Mixed*%
%TF.FilePolarity,Positive*%
%TF.GenerationSoftware,Autodesk,EAGLE,9.5.2*%
%TF.CreationDate,2021-09-18T17:57:11Z*%
G75*
%MOIN*%
%FSLAX36Y36*%
%LPD*%
%INTop Copper Layer*%
%AMOC8*
5,1,8,0,0,1.08239X$1,22.5*%
G01*
%ADD10P,0.056284X8X292.500000*%
%ADD11P,0.056284X8X112.500000*%
%ADD12P,0.056284X8X22.500000*%
%ADD13C,0.052000*%
%ADD14C,0.076000*%
%ADD15C,0.052000*%
%ADD16C,0.064000*%
%ADD17C,0.060000*%
%ADD18P,0.071438X8X202.500000*%
%ADD19P,0.071438X8X22.500000*%
%ADD20C,0.070000*%
%ADD21C,0.029780*%
%ADD22C,0.015000*%


D10*
X937529Y834367D03*
X937529Y734367D03*
D11*
X937359Y391594D03*
X937359Y491594D03*
X1990285Y650405D03*
X1990285Y750405D03*
D10*
X374409Y1365029D03*
X374409Y1265029D03*
X585512Y1356491D03*
X585512Y1256491D03*
D11*
X811336Y1263579D03*
X811336Y1363579D03*
D12*
X181102Y469680D03*
D13*
X101102Y469680D03*
D12*
X182047Y160329D03*
D13*
X102047Y160329D03*
D11*
X1266357Y783028D03*
D13*
X1266357Y703028D03*
D14*
X1183656Y140225D03*
X868696Y140225D03*
X416220Y141711D03*
X731180Y141711D03*
D15*
X440860Y720670D02*
X388860Y720670D01*
X388860Y620670D02*
X440860Y620670D01*
X688860Y620670D02*
X740860Y620670D01*
X740860Y720670D02*
X688860Y720670D01*
X440860Y520670D02*
X388860Y520670D01*
X388860Y420670D02*
X440860Y420670D01*
X688860Y520670D02*
X740860Y520670D01*
X740860Y420670D02*
X688860Y420670D01*
D16*
X1760940Y598318D03*
X1760940Y698318D03*
X1460940Y698318D03*
X1460940Y598318D03*
X1760940Y798318D03*
X1760940Y898318D03*
X1460940Y798318D03*
X1460940Y898318D03*
D17*
X1945426Y132401D02*
X2005426Y132401D01*
X2005426Y232401D02*
X1945426Y232401D01*
X191066Y1256903D02*
X131066Y1256903D01*
X131066Y1356903D02*
X191066Y1356903D01*
D18*
X388655Y934053D03*
X188655Y934053D03*
X746147Y934053D03*
X546147Y934053D03*
X1773054Y1264530D03*
X1573054Y1264530D03*
D19*
X1233160Y1260987D03*
X1433160Y1260987D03*
D18*
X1581059Y1092147D03*
X1381059Y1092147D03*
D17*
X1946753Y1291988D02*
X2006753Y1291988D01*
X2006753Y1191988D02*
X1946753Y1191988D01*
D20*
X1595350Y125975D03*
X1495350Y125975D03*
X1695350Y125975D03*
D21*
X599275Y458644D03*
D22*
X599275Y605085D01*
X714860Y720670D01*
X837213Y598318D01*
X1460940Y598318D01*
X894277Y1180639D02*
X811336Y1263579D01*
X1732797Y1180639D02*
X1768305Y1145131D01*
X1768305Y905682D01*
X1760940Y898318D01*
X1732797Y1180639D02*
X894277Y1180639D01*
X1525116Y1148090D02*
X1581059Y1092147D01*
X1525116Y1148090D02*
X1175092Y1148090D01*
X1098179Y1071177D02*
X1098179Y648020D01*
D21*
X1098179Y648020D03*
X1304826Y346203D03*
D22*
X1458694Y192335D01*
X1558706Y192335D01*
X1595350Y155690D01*
X1595350Y125975D01*
X1098179Y1071177D02*
X1175092Y1148090D01*
X1460940Y898318D02*
X1512558Y898318D01*
X1661435Y598318D02*
X1760940Y598318D01*
X1602987Y807889D02*
X1512558Y898318D01*
X1602987Y807889D02*
X1602987Y656766D01*
X1661435Y598318D01*
X1381580Y1091626D02*
X1381059Y1092147D01*
X1381580Y1091626D02*
X1381580Y988305D01*
X1414129Y955756D01*
X1585275Y955756D01*
X1694502Y846528D01*
X1694502Y757503D01*
X1753687Y698318D01*
X1760940Y698318D01*
M02*
