G04 EAGLE Gerber X2 export*
%TF.Part,Single*%
%TF.FileFunction,Soldermask,Bot*%
%TF.FilePolarity,Positive*%
%TF.GenerationSoftware,Autodesk,EAGLE,9.5.2*%
%TF.CreationDate,2021-09-18T17:57:11Z*%
G75*
%MOIN*%
%FSLAX36Y36*%
%LPD*%
%INBottom Solder Mask*%
%AMOC8*
5,1,8,0,0,1.08239X$1,22.5*%
G01*
%ADD10C,0.102488*%
%ADD11P,0.064943X8X292.500000*%
%ADD12P,0.064943X8X112.500000*%
%ADD13P,0.064943X8X22.500000*%
%ADD14C,0.060000*%
%ADD15C,0.084000*%
%ADD16C,0.060000*%
%ADD17C,0.072000*%
%ADD18C,0.068000*%
%ADD19P,0.080097X8X202.500000*%
%ADD20P,0.080097X8X22.500000*%
%ADD21C,0.078000*%
%ADD22C,0.037780*%


D10*
X89606Y718523D03*
X2066911Y940068D03*
D11*
X937529Y834367D03*
X937529Y734367D03*
D12*
X937359Y391594D03*
X937359Y491594D03*
X1990285Y650405D03*
X1990285Y750405D03*
D11*
X374409Y1365029D03*
X374409Y1265029D03*
X585512Y1356491D03*
X585512Y1256491D03*
D12*
X811336Y1263579D03*
X811336Y1363579D03*
D13*
X181102Y469680D03*
D14*
X101102Y469680D03*
D13*
X182047Y160329D03*
D14*
X102047Y160329D03*
D12*
X1266357Y783028D03*
D14*
X1266357Y703028D03*
D15*
X1183656Y140225D03*
X868696Y140225D03*
X416220Y141711D03*
X731180Y141711D03*
D16*
X440860Y720670D02*
X388860Y720670D01*
X388860Y620670D02*
X440860Y620670D01*
X688860Y620670D02*
X740860Y620670D01*
X740860Y720670D02*
X688860Y720670D01*
X440860Y520670D02*
X388860Y520670D01*
X388860Y420670D02*
X440860Y420670D01*
X688860Y520670D02*
X740860Y520670D01*
X740860Y420670D02*
X688860Y420670D01*
D17*
X1760940Y598318D03*
X1760940Y698318D03*
X1460940Y698318D03*
X1460940Y598318D03*
X1760940Y798318D03*
X1760940Y898318D03*
X1460940Y798318D03*
X1460940Y898318D03*
D18*
X1945426Y132401D02*
X2005426Y132401D01*
X2005426Y232401D02*
X1945426Y232401D01*
X191066Y1256903D02*
X131066Y1256903D01*
X131066Y1356903D02*
X191066Y1356903D01*
D19*
X388655Y934053D03*
X188655Y934053D03*
X746147Y934053D03*
X546147Y934053D03*
X1773054Y1264530D03*
X1573054Y1264530D03*
D20*
X1233160Y1260987D03*
X1433160Y1260987D03*
D19*
X1581059Y1092147D03*
X1381059Y1092147D03*
D18*
X1946753Y1291988D02*
X2006753Y1291988D01*
X2006753Y1191988D02*
X1946753Y1191988D01*
D21*
X1595350Y125975D03*
X1495350Y125975D03*
X1695350Y125975D03*
D22*
X599275Y458644D03*
X1098179Y648020D03*
X1304826Y346203D03*
M02*
