M48
;GenerationSoftware,Autodesk,EAGLE,9.5.2*%
;CreationDate,2021-09-18T17:57:11Z*%
FMAT,2
ICI,OFF
INCH,TZ,00.0000
T5C0.0138
T4C0.0320
T3C0.0354
T2C0.0400
T1C0.0440
%
G90
M72
T1
X11837Y1402
X8687Y1402
X4162Y1417
X7312Y1417
T2
X1611Y12569
X19754Y2324
X19754Y1324
X1611Y13569
X19768Y12920
X19768Y11920
T3
X16954Y1260
X15954Y1260
X14954Y1260
T4
X19903Y7504
X3744Y13650
X3744Y12650
X5855Y13565
X5855Y12565
X8113Y12636
X1811Y4697
X1011Y4697
X1820Y1603
X1020Y1603
X12664Y7830
X12664Y7030
X4149Y7207
X4149Y6207
X7149Y6207
X7149Y7207
X4149Y5207
X4149Y4207
X7149Y5207
X7149Y4207
X17609Y5983
X17609Y6983
X14609Y6983
X14609Y5983
X17609Y7983
X17609Y8983
X14609Y7983
X14609Y8983
X19903Y6504
X9375Y8344
X1887Y9341
X7461Y9341
X5461Y9341
X17731Y12645
X15731Y12645
X12332Y12610
X3887Y9341
X15811Y10921
X13811Y10921
X9375Y7344
X9374Y3916
X9374Y4916
X8113Y13636
X14332Y12610
T5
X13048Y3462
X10982Y6480
X5993Y4586
M30